<svg width="28" height="19" fill="none" xmlns="http://www.w3.org/2000/svg"><path d="M7.71 2.318A9.752 9.752 0 0114 0c4.707 0 8.615 3.455 9.04 7.91 2.787.388 4.96 2.69 4.96 5.516C28 16.528 25.378 19 22.202 19H6.617C2.989 19 0 16.178 0 12.64c0-3.045 2.216-5.567 5.149-6.206.25-1.49 1.221-2.976 2.561-4.116zm1.143 1.308C7.53 4.753 6.835 6.113 6.835 7.176v.775l-.778.084C3.612 8.3 1.75 10.281 1.75 12.64c0 2.534 2.152 4.633 4.867 4.633h15.585c2.263 0 4.048-1.748 4.048-3.847 0-2.1-1.785-3.848-4.048-3.848h-.875v-.864C21.33 4.88 18.074 1.727 14 1.727a7.989 7.989 0 00-5.147 1.9v-.001z" fill="#fff"/></svg>