<svg width="52" height="52" fill="none" xmlns="http://www.w3.org/2000/svg"><path d="M36.96 14.953c3.045 3.052 4.567 6.734 4.567 11.047 0 4.313-1.522 7.995-4.567 11.047-3.044 3.052-6.718 4.577-11.02 4.577-4.304 0-7.957-1.546-10.961-4.638L25.939 26V10.376c4.303 0 7.977 1.525 11.021 4.577zM26 0c7.185 0 13.315 2.543 18.389 7.63C49.463 12.714 52 18.838 52 26c0 7.161-2.537 13.285-7.611 18.37C39.315 49.458 33.185 52 26 52c-7.185 0-13.315-2.543-18.389-7.63C2.537 39.286 0 33.162 0 26c0-7.161 2.537-13.285 7.611-18.37C12.685 2.542 18.815 0 26 0zm0 46.873c5.724 0 10.615-2.034 14.675-6.103 4.059-4.069 6.089-8.992 6.089-14.77 0-5.778-2.03-10.701-6.09-14.77C36.616 7.161 31.725 5.127 26 5.127S15.385 7.16 11.325 11.23C7.266 15.299 5.237 20.222 5.237 26c0 5.778 2.03 10.701 6.088 14.77 4.06 4.069 8.951 6.103 14.675 6.103z" fill="#4965EE"/></svg>