<svg width="52" height="52" fill="none" xmlns="http://www.w3.org/2000/svg"><path fill-rule="evenodd" clip-rule="evenodd" d="M52 30.16a3.12 3.12 0 01-3.12 3.12H10.92a3.12 3.12 0 01-3.12-3.12V3.12A3.12 3.12 0 0110.92 0h37.96A3.12 3.12 0 0152 3.12v27.04z" fill="#3F58D2"/><path fill-rule="evenodd" clip-rule="evenodd" d="M44.2 37.96c0 1.676-1.425 3.12-3.12 3.12h-6.76c-.579 0-1.04.392-1.04 1.04v9.36c0 .384-.132.52-.477.52-.12 0-.245-.08-.45-.238L19.89 42.12c-1.56-1.04-3.187-1.043-3.187-1.043L3.07 41.076c-1.696 0-3.07-1.36-3.07-3.036V11.456C0 9.781 1.506 8.312 3.12 8.32h37.96c1.852 0 3.12 1.444 3.12 3.12v26.52z" fill="#4965EE"/></svg>