<svg width="300" height="300" fill="none" xmlns="http://www.w3.org/2000/svg"><path fill-rule="evenodd" clip-rule="evenodd" d="M48.437 269.635s-8.376-.171-10.47-3.564c-1.042-1.69-1.154-5.059-.713-6.691.4-1.5 1.246-1.3 2.857-2.062 5.125-2.439 15.244 6.984 18.01 1.8.52-.977.363 2.844.445 3.214a4.502 4.502 0 01-.993 3.426c-2.014 2.795-5.981 3.41-9.136 3.877z" fill="#fff"/><path fill-rule="evenodd" clip-rule="evenodd" d="M45.573 256.745c2.434.741 5.177 2.078 7.363 2.744 4.155 1.273 4.2-.558 4.823-1.094a.81.81 0 011.236.258c.39.737.163 2.578.3 3.883a5.117 5.117 0 01-1.088 3.383c-2.16 3.033-6.094 3.614-9.792 4.03-2.923 0-7.156-.51-9.579-2.145a4.707 4.707 0 01-1.89-2.359 11.764 11.764 0 01-.646-4.383c.118-2.919.934-3.44 2.258-3.933 1.747-.641 2.874-1.649 7.015-.384zM59.25 262.2v-.011.01-.021.022zm-1.567-2.869l-.005-.014.005.014zm-1.046 6.637a4.936 4.936 0 001.315-3.013c-.014-.409-.076-.365-.106-.891-.016-.34-.027-1.023-.043-1.392-3.813 3.086-11.9-3.851-16.645-2.908-.744.229-1.474.5-2.187.812-.226.07-.44.174-.634.308-.837.664-.777 4.741-.007 6.488 1.212 2.779 7.14 3.766 10.106 3.947 2.877-.519 6.265-1.174 8.2-3.35l.001-.001z" fill="#212121"/><path fill-rule="evenodd" clip-rule="evenodd" d="M48.3 265.839s-8.376-.171-10.47-3.564c-5.041-8.174 14.858-13.121 19.98-4.834a4.092 4.092 0 01-.375 4.517c-2.018 2.799-5.985 3.414-9.135 3.881z" fill="#fff"/><path fill-rule="evenodd" clip-rule="evenodd" d="M48.262 266.153a25.106 25.106 0 01-7.156-.994c-2.233-.737-3.8-1.773-4.529-3.937-2.52-7.452 12.991-11.915 19.943-6.328 4.69 3.768 2.352 8.76-3.313 10.41a32.738 32.738 0 01-4.945.849zm.284-.675c3.136-.584 7-1.42 8.565-4.21a3.738 3.738 0 00.484-2.348 5.422 5.422 0 00-2.3-3.055c-6.22-4.378-20.713-.591-16.935 6.021 1.125 1.934 4.54 2.818 6.73 3.229 1.138.234 2.295.355 3.456.363z" fill="#212121"/><path fill-rule="evenodd" clip-rule="evenodd" d="M80.606 253.175c-.106 4.735 1.558 20.168 1.693 28.606.08 5.057 18.042 4.52 18.689.645.273-1.635 1.245-29.625.255-30.3-1.353-.918-20.637 1.049-20.637 1.049z" fill="#fff"/><path fill-rule="evenodd" clip-rule="evenodd" d="M80.574 252.867c4.308-.526 13.359-1.5 18.1-1.6 2.884-.049 3.186.191 3.394 1.226.819 4.337-.025 29.178-.38 30.348-.7 2.2-4.708 2.947-6.994 3.209-3.326.356-8.146.226-11.05-1.349a3.471 3.471 0 01-2.066-2.865c-.2-9.31-1.7-28.662-1.283-28.662a.313.313 0 01.279-.307zm.347.594c.06 5.1 1.958 20.146 2.1 28.328.144 3.533 12.747 3.614 16.413 1.373.334-.175.603-.451.769-.789.241-.756 1.222-29.6.478-29.742-2.86-.494-16.894.599-19.76.83zm19.993-.767l-.011-.006.011.006zm-.017-.009l.014.006-.015-.006h.001zm0 0h-.007.007z" fill="#4965EE"/><path fill-rule="evenodd" clip-rule="evenodd" d="M20.074 246.1c-.105 4.735 1.56 20.168 1.693 28.606.081 5.057 18.043 4.52 18.69.645.273-1.635 1.245-29.625.255-30.3-1.353-.915-20.638 1.049-20.638 1.049z" fill="#fff"/><path fill-rule="evenodd" clip-rule="evenodd" d="M20.043 245.8c4.307-.526 13.36-1.5 18.1-1.6 2.885-.049 3.186.191 3.395 1.226.818 4.337-.025 29.178-.38 30.348-.7 2.2-4.708 2.947-6.994 3.209-3.327.356-8.146.226-11.05-1.35a3.463 3.463 0 01-2.067-2.864c-.2-9.311-1.7-28.662-1.282-28.662a.311.311 0 01.278-.307zm.347.594c.06 5.1 1.958 20.146 2.1 28.328.144 3.533 12.747 3.614 16.413 1.373.333-.175.602-.451.768-.789.242-.756 1.222-29.6.48-29.742-2.86-.499-16.896.594-19.76.825v.005zm19.993-.767l-.012-.006.012.006zm-.017-.009l.014.006-.015-.006h.001zm.005 0h-.007.007z" fill="#212121"/><path fill-rule="evenodd" clip-rule="evenodd" d="M101.859 259.67c-1.947 5.37-12.988 5.529-18.408 3.552a7.74 7.74 0 01-2.359-1.3c-.143-.133-.1-.044-.14-.548.64-.047.267-.086.856.215 3.231 1.586 16.795 2.387 19.488-2.177l.413-.154.15.412z" fill="#4965EE"/><path fill-rule="evenodd" clip-rule="evenodd" d="M41.178 252.183l.15.415c-1.9 5.241-12.9 5.675-18.63 3.469a7.866 7.866 0 01-2.176-1.255c-.1-.1-.066-.019-.1-.513.616-.045.283-.088.814.193 3.1 1.579 15.993 2.327 19.212-1.684.475-.603.094-.388.73-.625z" fill="#212121"/><path fill-rule="evenodd" clip-rule="evenodd" d="M101.66 267.01c-2.576 4.059-16.016 3.991-20.023 1.066-.2-.152-.148-.049-.242-.564.767-.138.088-.1 1.349.294 2.33.693 8.561 1.177 13.8.425 1.437-.206 3.622-.548 4.626-1.6l.438-.059.052.438z" fill="#4965EE"/><path fill-rule="evenodd" clip-rule="evenodd" d="M41.077 259.5l.052.438c-2.587 4.075-16.1 4.007-20.066 1.035-.16-.122-.11-.038-.2-.533.77-.139.095-.1 1.295.277 3.46 1.079 16.03 1.411 18.48-1.159l.439-.058z" fill="#212121"/><path fill-rule="evenodd" clip-rule="evenodd" d="M101.583 273.3l-.14.418a20.344 20.344 0 01-14.994 2.417c-1.377-.308-3.553-.727-4.437-1.942l.025-.444c.732.042.224-.032.868.322a5.948 5.948 0 001.944.524c1.864.268 3.743.425 5.625.471a33.48 33.48 0 0010.689-1.9l.42.134z" fill="#4965EE"/><path fill-rule="evenodd" clip-rule="evenodd" d="M41.052 266.229l-.14.418a20.347 20.347 0 01-14.995 2.417c-1.377-.308-3.552-.727-4.436-1.942l.025-.444c.732.042.224-.032.868.322.614.284 1.27.461 1.944.524a47.71 47.71 0 005.625.471 33.482 33.482 0 0010.689-1.9l.42.134z" fill="#212121"/><path fill-rule="evenodd" clip-rule="evenodd" d="M101.471 279c-.1 1.081-1.511 1.888-2.505 2.323-3.282 1.436-8.619 1.6-12 .925-1.682-.353-4.034-1.168-4.822-2.7l.1-.434.433.1c1.526 1.908 7.739 1.948 10.174 1.813 1.637-.1 7.3-.556 7.98-2.048.057-.13-.039-.041.4-.342l.24.363z" fill="#4965EE"/><path fill-rule="evenodd" clip-rule="evenodd" d="M40.493 273.985c-.1 1.081-1.511 1.888-2.505 2.323-3.281 1.436-8.619 1.6-12 .925-1.682-.353-4.034-1.168-4.821-2.7l.1-.434.434.1c1.525 1.908 7.739 1.948 10.173 1.813 1.638-.1 7.3-.556 7.98-2.048.057-.13-.038-.041.4-.342l.239.363z" fill="#212121"/><path fill-rule="evenodd" clip-rule="evenodd" d="M91.569 259.251s-8.376-.17-10.469-3.564c-5.042-8.173 14.857-13.121 19.979-4.834a4.096 4.096 0 01-.375 4.518c-2.013 2.798-5.98 3.414-9.135 3.88z" fill="#fff"/><path fill-rule="evenodd" clip-rule="evenodd" d="M91.536 259.565a25.071 25.071 0 01-7.156-.994c-2.233-.737-3.8-1.773-4.529-3.937-2.52-7.451 12.991-11.914 19.943-6.328 4.69 3.768 2.352 8.76-3.313 10.41a32.742 32.742 0 01-4.945.849zm.283-.675c3.137-.584 7-1.42 8.566-4.21a3.74 3.74 0 00.484-2.348 5.43 5.43 0 00-2.3-3.055c-6.222-4.378-20.714-.59-16.936 6.022 1.126 1.933 4.541 2.817 6.731 3.228 1.137.234 2.294.356 3.455.363z" fill="#4965EE"/><path fill-rule="evenodd" clip-rule="evenodd" d="M31.037 252.179s-8.376-.17-10.468-3.564c-5.042-8.173 14.857-13.121 19.98-4.834a4.094 4.094 0 01-.376 4.518c-2.013 2.801-5.98 3.413-9.136 3.88z" fill="#fff"/><path fill-rule="evenodd" clip-rule="evenodd" d="M31.005 252.493a25.07 25.07 0 01-7.156-.994c-2.233-.737-3.8-1.773-4.53-3.937-2.52-7.451 12.99-11.914 19.944-6.328 4.69 3.768 2.352 8.76-3.313 10.41a32.738 32.738 0 01-4.945.849zm.283-.675c3.137-.584 7-1.42 8.565-4.21a3.738 3.738 0 00.485-2.348 5.428 5.428 0 00-2.3-3.055c-6.222-4.378-20.714-.59-16.936 6.022 1.125 1.933 4.54 2.817 6.73 3.228 1.138.234 2.295.356 3.456.363zm94.048-4.732a2.47 2.47 0 01-1.322.923c-.821.532-.833 2.9-2.75 6.327a3.172 3.172 0 01-1.057 1.256.984.984 0 01-1.289-.336 2.79 2.79 0 01-.486-1.313c-.172-1.188-.02-1.416-.034-5.511a90.939 90.939 0 01.43-11.29c.105-1.351.33-3.02 1.493-3.683 2.2-1.169 5.566 2.438 7.117 4.385-.285.246-.346.3 0 0 .215.293-.898 7.291-2.102 9.242zm-3.967-12.711c-.62.013-.832.523-.98 1.126a24.066 24.066 0 00-.261 3.338c-.3 4.615-.132 4.684-.224 13.582-.009.378.005.757.042 1.134 2.142-3.743 1.8-6.169 3.784-6.868.327-.108.42-.112.573-.323 1.13-1.683 2.166-6.506 2.558-8.218a23.371 23.371 0 00-2.627-2.375 6.123 6.123 0 00-2.865-1.396z" fill="#212121"/><path fill-rule="evenodd" clip-rule="evenodd" d="M120.776 170.978c-5.176 4.709-.8 47.289 7.206 67.533l-2.215-1.72-2.313 11.433s5.156 11.624 18.892 21.49c5.558 3.993 20.126 4.749 21.349 1.35 6.365-17.7 7.219-54.056 8.879-51.881 2.347 3.074 3.059 39.434 9.472 47.669 5.6 7.191 25.127 2.552 29 1.745 7.791-1.622 7.858-19.179 8.958-24.409 2.231-10.607 3.776-48.678 2.233-54.449-.48-1.8-1.485-5.929-2.932-7.278-2.06-1.919-6.231-2.462-8.86-2.821-7.751-1.06-15.771-.139-23.561-.119a191.397 191.397 0 01-31.933-2.384c-4.536-.759-8.94-2.086-13.473-2.836-6.692-1.109-20.702-3.323-20.702-3.323z" fill="#fff"/><path fill-rule="evenodd" clip-rule="evenodd" d="M212.912 179.342c2.574.434 6 1.232 7.479 3.366a16.736 16.736 0 011.792 4.229c1.028 3.413 1.3 4.476 1.389 12.246.1 11.916-.907 35.115-2.709 44.632-1.295 6.631-1.293 22.593-8.846 25.315-.936.329-5.362 1.167-6.923 1.434-7.659 1.291-20.019 2.542-24.182-3.975-5.523-8.7-6.534-36.872-8.4-45.271-1.107 6.612-2.317 26.969-5.9 42.263a72.501 72.501 0 01-2.32 7.936c-1.361 2.761-8.129 2.544-11.207 2.236-8.545-.915-11.36-3.476-14.528-6.082-7.369-6.077-12.831-13.351-15.473-18.773a4.96 4.96 0 01-.23-.509c0-.616 2.354-11.785 2.41-11.9a.586.586 0 01.861-.159c.729.569.629.531.564.347-5.309-15.106-9.61-42.429-8.206-59.135.172-2.018.6-5.42 2.08-6.8.109.119.149.163 0 0 .16-.128.192-.089.874.016 3.292.5 13.825 2.136 20.108 3.144 7.192 1.184 14.867 4.154 35.859 4.908 17.968.625 24.139-1.343 35.508.532zm-93.812-.761c-.6 11.245.944 24.618 3.008 35.69 3.112 16.642 6.4 23.757 6.449 24.224a.575.575 0 01-.456.579c-.4.051-.358-.019-1.914-1.223-2.131 10.531-2.123 10.212-2.075 10.312 2.609 5.391 8.056 12.547 15.6 18.679 3.116 2.5 4.446 3.467 7.929 4.456a33.768 33.768 0 007.359 1.163c2.041.094 6.149.049 7.675-1.2.285-.24.327-.23 1.116-2.79 4.778-15.679 6.026-41.477 7.348-48.138.159-.785.339-1.679.987-1.952.624-.206 1.03.177 1.319.769 2.385 5.047 2.977 38.145 8.984 46.906 3.995 5.668 16.924 3.994 23.783 2.736.981-.181 4.6-.9 5.219-1.1 6.557-2.231 6.743-18.288 7.885-23.911 1.965-9.7 3.5-42.2 2.54-52.057a25.39 25.39 0 00-2.525-8.176 5.984 5.984 0 00-3.106-2.053c-3.085-1.081-8.529-1.591-11.829-1.7-8.452-.253-23.36 1.419-44.06-1.376-8.786-1.188-10.7-2.057-16.6-3.287-2.666-.552-8.42-1.474-22.843-3.82-1.363 1.353-1.681 5.348-1.793 7.269z" fill="#212121"/><path fill-rule="evenodd" clip-rule="evenodd" d="M110.249 134.693c-5.317 4.595-28.161 4.112-32.447 3.754C43.77 135.6 43.134 98.147 41.572 72 39.8 42.32 43.317 9.86 78.6 6c5.154-.565 16.119.053 21.228.87 17.2 2.746 21.645 15.274 23.256 18.514 8.749 17.586 8.691 35.63 7.148 54.942-1.742 21.847-2.84 39.55-19.983 54.367z" fill="#fff"/><path fill-rule="evenodd" clip-rule="evenodd" d="M75.979 138.746c-26.911-3.25-32.485-28.331-34.428-55.125-1.657-23.588-3.861-54.25 14.666-69.679C63.277 8.1 72.792 5.254 81.7 5.026c5.21-.077 10.42.164 15.6.723 11.488 1.3 19.983 6.105 25.268 16.762 6.189 12.622 9.651 23.876 9.055 44.915-.247 7.685-1.405 21-2.133 27.185-1.62 13.362-4.51 24.6-13.42 34.8a59.554 59.554 0 01-5.611 5.521c-5.299 4.527-27.959 4.568-34.48 3.814zm7.744-132.19a43.51 43.51 0 00-7.625.558c-30.553 4.856-35.52 32.774-33.847 63.8.446 8.265.892 16.785 1.834 24.385 3.128 24.735 11.736 41.9 36.749 42.842 6.163.215 24.492.309 29.21-3.683 9.506-8.339 14.409-17.668 16.921-30.23 1.971-9.96 3.23-29.553 3.375-37.739.352-19.649-3.086-31.613-9.416-43.874A26.715 26.715 0 00104.121 8.62C98.423 6.954 88.9 6.556 83.723 6.556z" fill="#212121"/><path fill-rule="evenodd" clip-rule="evenodd" d="M88.09 164.448c.546-15.637.684-11.681.512-97.149l-.511 97.149z" fill="#fff"/><path fill-rule="evenodd" clip-rule="evenodd" d="M89.63 72.408c1.04 21.259 1.046 33.659.85 57.583a288.377 288.377 0 01-1.261 30.229c-.392 4.908-.241 4.048-.61 4.8l-.542.212h-.008l-.526-.249-.227-.559c0-12.852-1.121-42.688-.486-71.571.185-8.534.984-25.332 1.007-25.557l.244-.551.526-.232h.008c.939.41.729-.141 1.026 5.895z" fill="#212121"/><path fill-rule="evenodd" clip-rule="evenodd" d="M88.512 110.141c-2.412-4.539-16.5-24.755-21.36-31.21l21.36 31.21z" fill="#fff"/><path fill-rule="evenodd" clip-rule="evenodd" d="M67.769 78.463a89.172 89.172 0 019.494 11.268c4.348 6.126 9.081 13 11.895 19.919.064.16.045.034.07.737l-.34.444h-.007l-.556.037c-.7-.5-.266-.086-1.3-1.423-1.545-1.984-2.885-3.476-5.56-7.028C68.953 85.1 68.3 82.223 66.53 79.393l-.113-.6.261-.484h.006l.538-.116.547.27z" fill="#212121"/><path fill-rule="evenodd" clip-rule="evenodd" d="M237.22 173.461c.343.277.691.548 1.027.834.642.547 1.991 1.144 2.132 2.084.028.19-.635.776-.743.9-.7.789-1.263 1.7-1.882 2.551-.876 1.207-1.824 2.358-2.725 3.545-.293.384-.9 1.2-1.426 1.291-.25.044-1.168-.98-1.345-1.124a83.02 83.02 0 01-2.051-1.72c2.293-3.06 1.773-2.075 7.013-8.361z" fill="#fff"/><path fill-rule="evenodd" clip-rule="evenodd" d="M237.552 173.312c2.477 1.751 1.35.877 2.29 1.526a2.242 2.242 0 011.1 1.595c-.074.35-.258.668-.525.907a39.767 39.767 0 00-2.492 3.49c-.544.744-2.484 3.274-2.567 3.377a4.588 4.588 0 01-.941.931c-.9.6-1.391.243-2.163-.51-.88-.861-.608-.527-2.548-2.231a.76.76 0 01-.178-.93 53.499 53.499 0 014.757-5.358c2.935-3.114 2.788-3.05 3.084-2.919l.044.03.139.092zm-6.3 8.388a16.637 16.637 0 011.994 1.717c.119.116.249.245.391.369.426-.335 3.516-4.36 3.591-4.46 2.34-3.162 1.855-2.273 2.559-3.036a2.361 2.361 0 00-.689-.81 17.428 17.428 0 01-1.832-1.556c-4.166 5.676-2.946 3.731-6.016 7.776h.002zm8.572-5.232v-.052c-.006.019-.005.027-.002.052h.002z" fill="#212121"/><path fill-rule="evenodd" clip-rule="evenodd" d="M231.559 187.559c1.593-3.913 4.324-7.229 7.077-10.377.466-.533 1.788-2.789 2.649-2.829 1.7-.077 5.716 3.736 6.788 4.864.66.839 1.444 1.573 2.325 2.177.645.327 2.747-.222 3.39-.426 2.978-.946 5.613-1.175 5.881 1.921.1 1.132-1.24 2.319-5.115 2.6-.306.022.021.658.124.918.77 1.963 1.932 3.787 2.833 5.692 1.4 2.952 2.594 5.992 3.967 8.954.624 1.347 2.138 4.468 1.056 5.912-1.2 1.609-3.7-.732-4.371-1.607-2.782-3.649-4.869-8-7.133-12-.079-.14.259.516.488.876.408.639.682 1.33 1.037 2 .843 1.587 3.566 4.818 2.279 6.683-1.919 2.783-5.19-1.519-6.056-3.027-.33-.68-.72-1.328-1.167-1.938-.01 0 .163.486.178.525.252.618.635 1.212.825 1.851a2.052 2.052 0 01-1.486 2.329c-.9.354-1.735-.378-2.249-1.061a23.178 23.178 0 01-3.057-5.707c-.224-.6-.153-1.708-.718-2.121-2.238-1.638-9.545-6.209-9.545-6.209z" fill="#fff"/><path fill-rule="evenodd" clip-rule="evenodd" d="M259.766 180.9c.396.626.614 1.348.631 2.088-.008 2.155-2.884 2.917-5.016 3.165.738 1.863 1.944 3.761 2.884 5.756 1.145 2.43 2.057 4.658 3.163 7.154.892 2.011 2.223 4.43 2.263 6.5.016 2.451-2.009 3.769-4.722 1.668a15.271 15.271 0 01-3.354-4.187c-1.031 1.965-3.527 2.5-6.492-1.417a3.063 3.063 0 01-2.444 1.716 3.342 3.342 0 01-2.553-1.823 23.9 23.9 0 01-2.817-5.612c-.139-.511-.164-1.408-.425-1.714l.006.007c-.1-.12-1.441-1.045-1.57-1.135-7.848-5.413-8.216-5.095-8.048-5.624 2.087-5.315 5.914-9.014 7.779-11.67.631-.884 1.416-2 2.431-1.944 1.394.086 3.2 1.586 4.292 2.473a29.07 29.07 0 013.564 3.364c.26.275 1.062 1.121 1.468 1.168 2.119.198 6.92-2.833 8.96.067zm-7.818 21.623c.7.517 1.457.868 2.061.248.219-.206.363-.479.408-.776a2.517 2.517 0 00-.251-1.36c-1.209-2.105-3.39-6.151-3.61-6.539a1.51 1.51 0 01-.3-.767c.058-.1-.069-.327.37-.647a.763.763 0 01.855.043c.19.17.128.089.645 1.01.407.73-.286-.538 1.4 2.548.849 1.56.653 1.056 1.379 2.357a24.31 24.31 0 002.064 3.626 32.015 32.015 0 002.053 2.895 5.986 5.986 0 001.94 1.458c.215.101.457.131.69.085.3-.1.431-.487.47-.8a9.167 9.167 0 00-1.077-3.951c-1.913-4.185-2.719-6.3-4.09-9.257-.677-1.451-3.029-5.675-3.247-6.809a1.007 1.007 0 01.133-.769c.387-.518.591-.277 2.293-.565a6.322 6.322 0 002.245-.764c.672-.45.593-.77.539-1.136-.485-2.945-4.073-1.065-6.705-.618-2.87.487-2.67-.645-5.791-3.6-1.043-.981-3.384-3.11-4.75-3.5a1.144 1.144 0 00-.386-.048h.015c-.584.182-1.705 1.846-2.09 2.355-.807 1.054-5.063 5.234-7.254 10.2.7.427 9.06 5.525 9.632 6.143.558.637.471 1.556.735 2.227a22.582 22.582 0 003.013 5.447c.381.484.985 1.072 1.563.85.59-.243 1.236-.8 1.147-1.43-.076-.55-.743-1.465-1.063-2.522a.672.672 0 011.166-.617c.725.779 1.529 3.292 3.798 4.986v-.003zm-1.257-21.714h.008-.008zm.01 0h-.011.011zm0 0h-.009.009zm-9.4-5.93h.009-.009zm0 0h.012-.012z" fill="#212121"/><path fill-rule="evenodd" clip-rule="evenodd" d="M88.746 117.939c3.811-4.734 16.386-20.938 19.891-26.483l-19.89 26.483z" fill="#fff"/><path fill-rule="evenodd" clip-rule="evenodd" d="M109.054 90.792h.006l.294.459c.005.5-.144.989-.428 1.4a61.662 61.662 0 01-4.892 8.531 151.268 151.268 0 01-9.45 12.035 111.84 111.84 0 01-2.75 2.832c-2.957 2.86-2.32 2.308-3.04 2.635l-.537-.134h-.006l-.247-.5c.145-.684.084-.532.276-.852a100.129 100.129 0 018.962-13.361c6.74-8.868 5.905-7.3 10.275-12.265.574-.654.32-.45 1-.854l.537.074z" fill="#212121"/><path fill-rule="evenodd" clip-rule="evenodd" d="M63.71 163.863l6.19 66.108c5.43 1.462 44.124-.21 44.124-.21l5.845-65.5s-52.712-.575-56.158-.398z" fill="#fff"/><path fill-rule="evenodd" clip-rule="evenodd" d="M87.72 163.447c.323 0 31.99.053 32.385.155a.707.707 0 01.468.606c0 .992-5.547 63.1-5.773 65.622a.789.789 0 01-.618.692c-.805.1-36.048 1.511-43.7.307-.669-.113-1.186-.144-1.3-.791-1.711-18.7-4.251-48.1-5.786-66.146.377-.035.455-.042 0 0 .004-.464-.872-.449 24.324-.445zm-23.539.716c-.194 0-.328-2.007 2.462 25.475 4.166 41.616 3.819 39.718 3.986 39.747 6.4 1.056 36.181-.1 42.684-.371 1.769-19.9 3.954-44.325 5.787-64.065-17.877-.268-49.5-.84-54.919-.786z" fill="#212121"/><path fill-rule="evenodd" clip-rule="evenodd" d="M193.044 64.824c.809.136 1.512.663 2.315.839 2.7.592 5.262.74 7.854-.542a7.593 7.593 0 002.049-1.926c3.4-3.762 3.53-9.566-.37-12.949-5.588-4.846-11.88.03-11.88.03-3.216-1.848-5.56-3.556-8.576-4.107a28.34 28.34 0 00-9.84-.358 16.487 16.487 0 00-7.113 3.23c-3.88 3.34-5.545 9.875-5.727 14.777a15.021 15.021 0 001.767 7.966c.189.355.853 2.134.788 1.78-.411-2.262 5.406-4.114 6.894-.367.029.073 1.947-10.263 1.947-10.263 1.298 1.317 8.142 6.81 19.892 1.89z" fill="#4965EE"/><path fill-rule="evenodd" clip-rule="evenodd" d="M186.926 46.108a29.263 29.263 0 014.662 2.489c1.551.915 1.361.832 1.461.766 10.116-6.463 19.544 4.518 13.435 13.11a19.412 19.412 0 01-1.562 1.84 5.297 5.297 0 01-1.371 1.146 10.677 10.677 0 01-6.741.848 8.14 8.14 0 01-2.53-.678c-1.361-.631-1.112-.512-1.8-.23-7.981 3.211-14.653 1.96-18.927-1.348-1.2 6.913-1.611 9.23-1.754 9.506a.692.692 0 01-.643.33c-.667-.107-.485-.516-1.019-1.161a2.617 2.617 0 00-1.652-.906 3.765 3.765 0 00-3.227 1 .776.776 0 00-.214.6.757.757 0 01-1.451.43c-.176-.37-.508-1.234-.707-1.664a15.727 15.727 0 01-1.415-3.572c-.966-3.831-.371-8.571.815-12.377 1.915-6 5.2-9.553 11.465-11.039a27.597 27.597 0 0113.175.91zm-13.609 16.268c.261.1 4.744 5.094 13.693 3.807a33.924 33.924 0 006.088-1.661c.528.112 1.04.292 1.523.534 1.586.522 3.257.736 4.923.63a8.919 8.919 0 003.235-.852 5.917 5.917 0 002.056-1.895c6.687-7.622-1.512-18.128-10.675-12.547-.849.515-.872.723-1.4.575-.459-.214-3.881-2.276-4.682-2.688-1.957-1-3.3-1.424-6.915-1.814a21.638 21.638 0 00-7.167.272 15.485 15.485 0 00-6.087 2.974c-4.464 3.957-6.3 13.361-4.933 18.649a16.137 16.137 0 001.325 3.32 5.028 5.028 0 016.567-.221c.41-2.042 1.695-8.631 1.778-8.808a.583.583 0 01.671-.278v.003z" fill="#212121"/><path fill-rule="evenodd" clip-rule="evenodd" d="M171.06 72.875c.052.1.1.21.145.322.029.073 1.947-10.263 1.947-10.263 1.3 1.317 8.142 6.81 19.892 1.89.809.136 1.512.663 2.315.839 2.92.641 2.639.174 2.732.616.169 2.034.128 4.08-.122 6.106 0 0 3.8-.163 4.272 2.3a6.85 6.85 0 01-1.882 6.037c-.532.454-1.194.465-1.709.831-.032.39-.028.782.012 1.171-.055 3.743-2.191 10.362-5.15 13.141-1.572 1.476-4.233 2.074-6.31 2.423-6.444 1.083-13.3-.722-16.306-7.005a22.55 22.55 0 01-1.543-6.969 15.221 15.221 0 00-.461-3.68c-.177-.443-1.828-.257-2.333-.432-5.876-2.041-2.44-11.339 1.926-9.1a4.616 4.616 0 012.58 1.873l-.005-.1z" fill="#fff"/><path fill-rule="evenodd" clip-rule="evenodd" d="M173.207 62.471c.263.054.174.082.762.568 3.679 2.986 9.53 4.326 16.59 1.987 2.426-.823 2.172-.964 2.7-.87 1.449.3.994.7 3.882 1.1 1.088.139 1.078.041 1.392.289.709.786.35 5.06.256 6.121a5.11 5.11 0 013.571 1.526c1.332 1.653.913 6.053-1.533 8.142a4.563 4.563 0 01-1.425.691c0 .143.028.457.035.631.1 3.094-1.97 10.422-5.266 13.654-4.38 4.215-20.369 5.529-24.337-5.814a30.046 30.046 0 01-1.167-7.3 8.653 8.653 0 00-.27-2.237c-.883-.257-1.669.228-3.348-.924-4.125-2.947-1.5-10.085 2.43-9.642a3.49 3.49 0 011.143.365c.957.287 1.8.864 2.415 1.651 1.825-10.149 1.533-9.622 1.875-9.873a.47.47 0 01.295-.065zm-1.784 10.96a.32.32 0 01-.465-.032.58.58 0 01-.093-.193 4.635 4.635 0 00-2.35-1.733c-.341-.092-.325-.157-.781-.275-3.27-.767-5.6 5.641-2.037 7.987 1.159.736 1.383.46 2.629.6.887.114 1.049.407 1.232.991.484 1.6.285 5.195 1.4 8.762a11.728 11.728 0 008.864 7.847c5.294 1.211 11.221-.381 13.1-2.032 2.268-2.072 3.669-6 4.436-8.966 1.259-5.023-.413-5.1 1.6-5.845a2.199 2.199 0 001.193-.686c1.584-1.716 1.766-4.881 1-5.758a3.573 3.573 0 00-2.131-.9c-1.149-.148-1.184.066-1.588-.3-.251-.322-.206-.474-.164-.876.211-1.75.269-3.515.174-5.275a11.517 11.517 0 01-4.251-1.171c-.1-.03-.021-.041-.43.119-8.163 3.164-15.04 1.718-19.307-1.848-1.628 8.07-1.871 9.413-2.031 9.584zm-2.951 7.56l-.01-.006.01.006zm-.011-.007l.012.007-.012-.007zm.006.005l-.007-.005.007.005zm-.006-.005l.009.005-.01-.005h.001zm0 0h.01-.011.001z" fill="#212121"/><path fill-rule="evenodd" clip-rule="evenodd" d="M198.036 66.072c2.04.142 4.612-.3 5.942-1.48a17.164 17.164 0 01-1.319 9.137c-.128.29-.248.673-.4 1.031 0-.027-.009-.053-.014-.079-.471-2.459-4.272-2.3-4.272-2.3.136-1.257.462-5.104.063-6.309z" fill="#4965EE"/><path fill-rule="evenodd" clip-rule="evenodd" d="M204.042 63.926c.6.106.614.538.717 1.213a17.656 17.656 0 01-1.427 9c-.378.929-.317.978-.6 1.241a.771.771 0 01-.977-.028c-.376-.384-.168-.573-.484-1.067-.767-1.2-3.306-1.2-3.5-1.247a.683.683 0 01-.47-.721c.127-.912.277-1.833.408-3.234.156-1.03.17-2.076.041-3.11a.308.308 0 01.313-.206 9.478 9.478 0 004.993-1.273c.525-.358.497-.574.986-.568zm-5.578 2.511c.255 1.741.33 3.504.223 5.261.614.019 1.223.12 1.81.3a4.11 4.11 0 011.642.937 18.179 18.179 0 001.275-7.221 9.717 9.717 0 01-4.95.723z" fill="#212121"/><path fill-rule="evenodd" clip-rule="evenodd" d="M168.573 80.415a.424.424 0 01.295.207c.303 1.203.458 2.44.461 3.68.141 2.39.662 4.743 1.543 6.969 3.006 6.284 9.862 8.088 16.306 7 2.077-.349 4.738-.946 6.31-2.423 3.145-2.955 5.319-10.37 5.139-13.38.738.12 1.467.242 2.188.367 35.864 6.18 53.352 38.379 45.913 78.844-1.729 9.4-6.227 17.271-12.049 21.019-8.933 5.75-17.88 7.783-28.075 8.575-19.825 1.541-41.384 3.478-61.069-.595-4.964-1.027-10.294-2.234-14.9-4.409-2.217-1.045-18.087-14.276-20.67-22.8-8.311-27.428 5.256-55.3 27.621-72.946 8.497-6.7 19.543-9.466 30.987-10.108z" fill="#4965EE"/><path fill-rule="evenodd" clip-rule="evenodd" d="M169.327 81.017c.181.967.282 1.947.3 2.931.065.727.332 2.922.652 4.393 1.925 8.52 10.231 11.244 18.858 9.08a9.504 9.504 0 003.928-1.817c2.66-2.418 4.453-7.864 4.915-11.169.268-2.069.027-1.8.167-2.181a.522.522 0 01.565-.3 68.692 68.692 0 0111.882 2.758c28.435 9.516 40.72 36.479 38.247 66.8-.748 9.153-2.276 18.163-7.459 25.587-2.575 3.688-5.812 6.835-13.968 10.343a57.177 57.177 0 01-14.171 3.884c-5.91.873-23.418 2.02-29.448 2.3-8.309.448-16.639.359-24.937-.266-8.189-.695-20.049-2.743-27.32-5.838-1.749-.751-2.425-1.187-5.015-3.32-5.7-4.709-15.232-13.737-17.348-20.837-5.293-18.092-1.437-36.609 9.23-52.841 6.671-10.108 16.333-19.171 23.011-23.154a54.05 54.05 0 0121-6.718c1.488-.185 5.934-.607 6.256-.525.459.137.519.367.655.89zm-1-.276c-9.3.612-18.611 2.567-26.57 7.424-4.881 2.986-10.682 8.443-14.586 12.778-13.735 15.3-21.781 35.27-18.088 55.813a52.07 52.07 0 001.8 7.172c.211.551.453 1.088.726 1.611 4.052 7.782 16.638 18.589 19.272 20.009a49.933 49.933 0 009.159 3.12c15.018 3.717 28.378 4.1 44.167 3.373 8.528-.408 22.929-1.557 25.384-1.817 8.785-.952 16.257-2.989 23.848-7.647 3.6-2.235 6.683-5.331 9.394-11.054A44.859 44.859 0 00246.5 158.5c3.434-22.487-.438-46.128-17.257-61.576-8.79-8.024-18.729-11.913-30.09-13.824a26.248 26.248 0 01-3.288 10.472c-1.8 3-3.509 4.079-7.163 4.874-6.288 1.3-12.825.349-16.686-4.611a13.633 13.633 0 01-2.7-6.937c-.589-4.079-.28-4.716-.673-5.969-.069-.208-.016-.207-.32-.188h.004z" fill="#212121"/><path fill-rule="evenodd" clip-rule="evenodd" d="M206.165 83.99c32.281 8.316 47.651 39.276 40.587 77.699-1.729 9.405-6.227 17.272-12.049 21.019-8.933 5.75-17.88 7.784-28.075 8.576-4.153.323-8.382.663-12.654.961a174.445 174.445 0 01-1.606-21.051c.053-19.532 2.266-38.759 3.926-58.14a298.4 298.4 0 01.606-6.314c.648-.754 1.233-1.538 1.739-2.077 4.991-5.31 6.754-13.4 7.526-20.676v.002z" fill="#fff"/><path fill-rule="evenodd" clip-rule="evenodd" d="M206.243 83.689c31.782 7.979 45.772 36.849 42.428 69.875-1.049 10.181-3.315 20.922-11.081 27.907-2.907 2.614-8.01 5.165-11.661 6.6-9.566 3.7-18.344 3.958-28.7 4.724-3.552.261-3.327.3-3.693.094-.376-.312-.3-.316-.56-2.513-1.222-10.551-2.132-18.836-.35-42.907.694-9.284 1.561-17.8 2.47-27.2 1.434-14.921 1.2-13.549 1.622-14.045.646-.762.954-1.173 1.435-1.708a20.365 20.365 0 001.709-2.024c5.285-7.2 5.823-18.1 6.027-18.635a.306.306 0 01.354-.168zm-2.921 14.322c-1.969 4.677-3.809 6.263-5.581 8.465-.457.564-.373.395-.406.71.1.016-2.74 29.52-3.652 45.816-1.027 18.639-.533 25.125.6 35.219.406 3.559.339 3.2.439 3.2-.113-.116 15.462-.6 24.485-2.848 6-1.522 14.1-4.84 18.439-9.293 4.971-5.138 7.429-12.215 8.646-19.283 5.864-34.753-6.62-66.639-39.853-75.608a48.725 48.725 0 01-3.117 13.622z" fill="#212121"/><path fill-rule="evenodd" clip-rule="evenodd" d="M160.791 81.225a63.69 63.69 0 00.09 7.791c.277 6.425 2.962 14.222 7.6 19.3a39 39 0 01.054 1.024c.769 18.743 1.5 37.757.268 56.473-.476 7.238-.588 19.665-4.229 27.134a118.819 118.819 0 01-28.429-4.569 147.157 147.157 0 01-7.257-3.287c-4.809-3.627-16.7-14.335-18.9-21.613-8.311-27.428 5.256-55.3 27.621-72.946 6.543-5.159 14.598-7.987 23.182-9.307z" fill="#fff"/><path fill-rule="evenodd" clip-rule="evenodd" d="M160.845 80.92a.31.31 0 01.256.328c-.376-.028-.451-.034 0 0a63.973 63.973 0 00.516 11.161 31.538 31.538 0 006.9 15.211c.561.627.442.067.6 3.459 1.593 34.583 1.107 43.7.02 61.9a83.317 83.317 0 01-1.935 14.761 28.5 28.5 0 01-2.01 5.656c-.359.423-.661.321-1.264.292a118.572 118.572 0 01-21.469-2.86 41.81 41.81 0 01-11.876-4.056c-2.445-1.143-2.067-.958-3.031-1.72-5.669-4.485-15.659-13.911-18.127-20.792a57.383 57.383 0 01-2.2-10c-2.665-21.372 6.67-41.594 21.813-56.788 9.513-9.482 16.159-12.878 24.752-15.148a60.917 60.917 0 017.055-1.404zm-.406.677c-13.281 2.262-20.016 6.674-27.559 13.634-18.827 17.491-29.546 42.614-22.346 67.392a18.303 18.303 0 002.95 5.866c3.653 5.222 9.95 11.26 14.781 15.131 1.024.814.608.669 4.337 2.359a29.79 29.79 0 007.266 2.635 119.602 119.602 0 0024.237 3.549c1.8-3.925 2.621-9.134 3.079-13.408.459-4.348 1.426-19.558 1.573-30.562.132-10.656-.1-20.282-.447-30.907-.318-9.571-.264-8.712-.418-8.886a30.421 30.421 0 01-6.12-11.745c-.908-3.221-1.348-5.89-1.406-12.2-.018-3.022.173-2.872.073-2.855v-.003z" fill="#212121"/><path fill-rule="evenodd" clip-rule="evenodd" d="M158.2 200.249c-28.973-8.259-25.328-6.336-33.209-9.409-.55-.215-1.945-.368-2.271-.925-.392-.671.1-1.491.24-2.167.219-1.021.058-2.528.527-3.492.283-.581 2.035.1 2.417.177 2.525.483 5.043.885 7.538 1.525 9.893 2.543 20.073 3.713 29.936 6.315.2.054-.041.73-.075.831a17.302 17.302 0 01-1.313 2.5c-.625 1.185-1.108 2.467-1.758 3.634-.126.227-.391 1.015-.658 1.139-.448.211-.935-.022-1.374-.128z" fill="#fff"/><path fill-rule="evenodd" clip-rule="evenodd" d="M124.12 183.128c.741.091 1.472.246 2.186.465 10.75 2.011 5.958 1.462 18.047 3.848 2.57.5 14.861 2.831 19.246 4.278 1.254.564-.486 2.956-1.115 4.054-.547.969-1 2.031-1.57 3.109-.3.562-.263.463-.342.615-.36.716-.49 1.286-1.262 1.345-.412.031.416.141-9.994-2.5-19.8-5.009-17.987-4.362-21.035-5.374-2.108-.709-3.453-1.28-3.833-1.383-.38-.103-.732-.171-1.172-.314-2.566-.886-1.3-2.989-1.153-3.908.277-1.881-.118-4.276 1.997-4.235zm-.246 4.566a10.575 10.575 0 00-.41 1.731c.595.251 1.21.452 1.839.6 8.595 3.389 4.412 1.021 33 9.876.326.123.674.176 1.022.157h-.009l.032-.009h-.009l.033-.011h-.01l.026-.01.015-.017-.008.008.018-.021-.006.007c.168-.228.263-.593.572-1.195.7-1.412 1.1-2.642 1.818-3.938a9.73 9.73 0 001.013-2.131c-5.058-1.236-11.75-2.306-17.365-3.334-9.741-1.783-11.13-2.386-14.3-3.065-1.168-.245-5.551-1.065-5.557-1.067-.458-.15-.926-.267-1.4-.351-.204.691-.171 1.876-.314 2.77zm35.508 12.342l.009-.008-.009.008zm0 0h.006-.006zm.008 0l.016-.008-.016.008zm3.468-7.574v-.019.019z" fill="#212121"/><path fill-rule="evenodd" clip-rule="evenodd" d="M157.037 204.7c.115-2.286 1.535-5.083 2.37-7.181.879-2.207 1.937-4.341 2.869-6.524.258-.605.761-2.239 1.356-2.655 1.018-.71 3.731.527 4.7.987 9.794 4.637 17.773 8.983 27.038 14.267-12.2 3.806-25.089 3.506-38.333 1.106z" fill="#fff"/><path fill-rule="evenodd" clip-rule="evenodd" d="M167.268 188.114c2.65 1.01 15.135 7.311 21.861 11.064 7.29 4.068 6.784 3.772 6.959 4.117a.772.772 0 01-.258.92 47.227 47.227 0 01-5.631 1.523c-9.212 1.935-18.078 1.71-27.345.311-.324-.05-5.807-.924-6.044-1.141a.286.286 0 01-.082-.229c.044-.835.191-1.662.436-2.462.822-2.846 4.4-10.956 4.671-11.709.939-2.6 1.326-3.939 5.433-2.394zm-3.247.73l-.033.02.015-.01a7.735 7.735 0 00-1.127 2.231c-1.237 2.944-5.14 10.3-5.5 13.351 3.591.529 5.977.884 10.482 1.2a76.416 76.416 0 0025.54-2.268c-5.478-3.093-9.685-5.489-14.8-8.075-6.268-3.2-13.23-7.122-14.577-6.449z" fill="#212121"/><path fill-rule="evenodd" clip-rule="evenodd" d="M106.972 291.789s-8.376-.171-10.47-3.564c-1.041-1.69-1.153-5.06-.713-6.692.4-1.5 1.246-1.3 2.857-2.062 5.125-2.439 15.244 6.985 18.011 1.8.52-.976.363 2.845.444 3.214a4.51 4.51 0 01-.993 3.427c-2.008 2.794-5.98 3.41-9.136 3.877z" fill="#fff"/><path fill-rule="evenodd" clip-rule="evenodd" d="M104.108 278.9c2.434.74 5.177 2.077 7.363 2.744 4.156 1.272 4.2-.559 4.823-1.095a.807.807 0 01.679-.165.8.8 0 01.557.423c.391.737.163 2.579.3 3.883a5.131 5.131 0 01-1.088 3.383c-2.16 3.034-6.095 3.614-9.793 4.031-2.923 0-7.156-.511-9.58-2.146a4.701 4.701 0 01-1.89-2.359 11.742 11.742 0 01-.645-4.382c.118-2.92.935-3.441 2.258-3.933 1.748-.642 2.875-1.65 7.016-.384zm13.676 5.459v-.021.021zm-1.567-2.87v-.014.014zm0 0v-.006.006zm-1.046 6.636a4.942 4.942 0 001.316-3.012c-.015-.41-.077-.365-.107-.891-.016-.341-.027-1.023-.043-1.393-3.812 3.086-11.9-3.851-16.645-2.908-.743.23-1.474.501-2.187.812-.226.07-.44.174-.633.308-.837.664-.778 4.741-.008 6.488 1.212 2.78 7.139 3.766 10.106 3.948 2.877-.523 6.26-1.177 8.2-3.355l.001.003z" fill="#4965EE"/><path fill-rule="evenodd" clip-rule="evenodd" d="M31.92 288.7s-8.376-.17-10.47-3.563c-1.042-1.69-1.154-5.06-.713-6.692.4-1.5 1.245-1.3 2.857-2.062 5.125-2.439 15.243 6.985 18.01 1.8.52-.976.363 2.845.444 3.214a4.49 4.49 0 01-.993 3.427c-2.013 2.791-5.98 3.407-9.135 3.876z" fill="#fff"/><path fill-rule="evenodd" clip-rule="evenodd" d="M29.056 275.808c2.433.74 5.177 2.077 7.362 2.744 4.156 1.272 4.2-.559 4.824-1.1a.81.81 0 011.235.258c.39.737.164 2.579.3 3.883a5.117 5.117 0 01-1.088 3.383c-2.16 3.034-6.094 3.614-9.792 4.031-2.923 0-7.157-.511-9.58-2.146a4.705 4.705 0 01-1.89-2.359 11.765 11.765 0 01-.646-4.382c.119-2.92.935-3.441 2.258-3.933 1.749-.636 2.875-1.644 7.017-.379zm13.676 5.459v-.012.011-.021.022zm-1.567-2.87l-.006-.014.006.014zm0 0v-.006.006zm-1.046 6.636a4.94 4.94 0 001.316-3.012c-.014-.41-.077-.365-.106-.891-.016-.341-.027-1.023-.043-1.393-3.813 3.086-11.9-3.851-16.645-2.908-.744.23-1.474.501-2.188.812-.225.07-.439.174-.633.308-.837.664-.778 4.741-.007 6.488 1.21 2.78 7.138 3.766 10.106 3.948 2.88-.522 6.258-1.177 8.198-3.354l.002.002z" fill="#212121"/><path fill-rule="evenodd" clip-rule="evenodd" d="M178.471 294.685s-8.376-.17-10.469-3.564c-1.042-1.69-1.154-5.059-.714-6.691.4-1.5 1.246-1.3 2.857-2.062 5.125-2.439 15.244 6.984 18.011 1.8.521-.977.363 2.844.444 3.214a4.494 4.494 0 01-.993 3.426c-2.013 2.792-5.98 3.41-9.136 3.877z" fill="#fff"/><path fill-rule="evenodd" clip-rule="evenodd" d="M175.607 281.8c2.434.741 5.177 2.078 7.363 2.744 4.156 1.273 4.2-.558 4.824-1.094a.803.803 0 01.679-.166.821.821 0 01.556.424c.391.737.163 2.579.3 3.883a5.131 5.131 0 01-1.088 3.383c-2.16 3.033-6.095 3.614-9.793 4.03-2.923 0-7.156-.51-9.579-2.145a4.698 4.698 0 01-1.89-2.359 11.745 11.745 0 01-.646-4.382c.118-2.92.935-3.441 2.258-3.934 1.748-.646 2.875-1.654 7.016-.384zm13.676 5.46v-.02.02zm-1.567-2.87v-.014.014zm0 0v-.006.006zm-1.046 6.637a4.942 4.942 0 001.316-3.012c-.015-.41-.077-.366-.107-.892-.015-.34-.027-1.022-.043-1.392-3.812 3.086-11.9-3.851-16.645-2.908-.744.23-1.474.501-2.187.812-.226.07-.439.174-.633.308-.837.664-.778 4.741-.008 6.488 1.212 2.78 7.139 3.766 10.107 3.947 2.876-.528 6.259-1.178 8.199-3.359l.001.008z" fill="#212121"/><path fill-rule="evenodd" clip-rule="evenodd" d="M181.933 131.567a11.963 11.963 0 01-4.747 5.571 14.571 14.571 0 014.7 6.1 10.874 10.874 0 014.941-6.289 11.74 11.74 0 01-4.894-5.382z" fill="#fff"/><path fill-rule="evenodd" clip-rule="evenodd" d="M183.152 132.925a11.55 11.55 0 002.382 2.384c1.615 1.186 1.935.95 2 1.643-.068.816-.775.521-2.56 2.428a10.2 10.2 0 00-1.559 2.228c-.909 1.753-.615 2.042-1.23 2.354a.768.768 0 01-.869-.2c-.173-.228-.108-.194-.428-.893a16.28 16.28 0 00-4.288-5.369c-.736-1.462 2.3-.81 5.048-6.062a.303.303 0 01.231-.181c.395-.031.27.307 1.273 1.668zm-4.82 4.233a15.019 15.019 0 013.49 4.146 10.96 10.96 0 013.729-4.391 11.672 11.672 0 01-3.607-4.519 11.872 11.872 0 01-3.612 4.764z" fill="#212121"/><path fill-rule="evenodd" clip-rule="evenodd" d="M264.864 120.428a11.964 11.964 0 01-4.747 5.572 14.563 14.563 0 014.7 6.1 10.873 10.873 0 014.941-6.288 11.755 11.755 0 01-4.894-5.384z" fill="#fff"/><path fill-rule="evenodd" clip-rule="evenodd" d="M266.083 121.786a11.57 11.57 0 002.382 2.383c1.615 1.187 1.935.95 2 1.644-.069.815-.776.52-2.56 2.428a10.113 10.113 0 00-1.56 2.228c-.909 1.753-.614 2.041-1.23 2.354a.776.776 0 01-.869-.2c-.173-.228-.108-.193-.427-.892a16.29 16.29 0 00-4.286-5.367c-.735-1.461 2.3-.809 5.048-6.061a.302.302 0 01.231-.18c.394-.037.269.302 1.271 1.663zm-4.82 4.232a15.009 15.009 0 013.49 4.147 10.964 10.964 0 013.729-4.392 11.663 11.663 0 01-3.607-4.519 11.849 11.849 0 01-3.612 4.764z" fill="#212121"/><path fill-rule="evenodd" clip-rule="evenodd" d="M216.821 109.039a11.975 11.975 0 01-4.748 5.571 14.563 14.563 0 014.7 6.1 10.883 10.883 0 014.941-6.288 11.74 11.74 0 01-4.893-5.383z" fill="#fff"/><path fill-rule="evenodd" clip-rule="evenodd" d="M216.824 108.73c.48.033.865 2.259 4.246 4.5 1.055.684 1.3.609 1.347 1.2-.052.618-.3.451-1.566 1.488a10.242 10.242 0 00-2.737 3.536c-.741 1.576-.484 1.7-1.047 1.986-1.56.475-.43-1.768-4.891-5.823-.6-.537-.535-.428-.69-.637-.736-1.461 2.3-.808 5.047-6.061.272.119.42.184 0 0a.3.3 0 01.291-.189zm-3.605 5.9a14.99 14.99 0 013.49 4.146 10.96 10.96 0 013.729-4.391 11.672 11.672 0 01-3.607-4.519 11.856 11.856 0 01-3.612 4.764z" fill="#212121"/><path fill-rule="evenodd" clip-rule="evenodd" d="M275.358 153.743a11.973 11.973 0 01-4.747 5.571 14.58 14.58 0 014.7 6.1 10.883 10.883 0 014.941-6.288 11.742 11.742 0 01-4.894-5.383z" fill="#fff"/><path fill-rule="evenodd" clip-rule="evenodd" d="M276.576 155.1a11.546 11.546 0 002.382 2.383c1.615 1.187 1.935.951 2 1.644-.069.816-.775.521-2.56 2.428a10.204 10.204 0 00-1.56 2.228c-.909 1.753-.614 2.041-1.23 2.354a.772.772 0 01-.869-.2c-.172-.228-.108-.194-.427-.893a16.3 16.3 0 00-4.285-5.367c-.736-1.461 2.3-.809 5.047-6.061a.3.3 0 01.23-.181c.396-.035.27.305 1.272 1.665zm-4.82 4.233a15.019 15.019 0 013.49 4.146 10.955 10.955 0 013.73-4.391 11.684 11.684 0 01-3.608-4.519 11.859 11.859 0 01-3.612 4.765v-.001z" fill="#212121"/><path fill-rule="evenodd" clip-rule="evenodd" d="M193.423 233.735s3.52 38.43 3.869 39.708c1.99 7.285 46.8 8.064 48.713-1.263.319-1.556 6.647-38.442 5.787-39.332-1.3-1.348-3.908-1.387-5.57-1.744-3.984-.856-7.862-2.174-11.853-2.983a51.457 51.457 0 00-13.252-.438c-9.565.569-18.628 3.532-27.694 6.052z" fill="#4965EE"/><path fill-rule="evenodd" clip-rule="evenodd" d="M243.616 229.739c4.709 1.183 5.078.835 6.9 1.479a4.636 4.636 0 011.829 1.12c.364.415.323 1.15.2 2.669-.47 5.273-2.436 17.477-3.285 22.692-2.551 15.623-2.507 15.069-2.962 15.868a8.489 8.489 0 01-3.915 3.072c-7.332 3.322-21.151 3.532-29.623 2.768-4.189-.391-14.741-1.674-16.058-5.679-.363-1.186-3.68-39.954-3.58-39.964v-.054a.353.353 0 01.027-.1c.167-.294 11.724-3.509 12.759-3.783a83.198 83.198 0 0113.829-2.6c12.59-1.121 15.419.357 23.879 2.512zm-49.844 4.32c.4 3.986 3.532 34.746 4.081 38.768a2.134 2.134 0 001.1 1.7c1.33.85 2.791 1.474 4.325 1.848 6.371 1.75 15.338 2.111 21.919 1.825 4.9-.221 16.5-1.214 19.511-5.059a2.96 2.96 0 00.618-1.549c.519-2.87 6.124-35.64 5.795-38.357-1.044-.927-3.224-1.079-4.619-1.332-2.777-.507-8.3-2.287-12.263-3.129a37.498 37.498 0 00-7.512-.693c-10.663-.02-17.671 1.693-28.1 4.552-5.406 1.489-4.869 1.29-4.855 1.426z" fill="#212121"/><path fill-rule="evenodd" clip-rule="evenodd" d="M193.3 235.17c2.972 2.267 19.631 7.592 32.351 4.86 4.314-.927 31.957-2.619 24.651-9.734-4.794-4.67-28.433-6.49-32.241-5.508-3.485.9-29.253 3.937-24.761 10.382z" fill="#fff"/><path fill-rule="evenodd" clip-rule="evenodd" d="M222.284 223.808c6.507.105 12.989.837 19.356 2.186 3.7.838 10.33 2.582 10.656 6.352.4 6.346-21.085 7.289-26.8 8.438-3.68.67-7.434.835-11.158.492-9.275-.746-18.032-3.78-20.772-5.539a.288.288 0 01-.162.001.283.283 0 01-.138-.084l-.035-.042a4.817 4.817 0 01-.561-.908c-2.247-5.246 13.034-8.211 18.777-9.341 7.153-1.394 7.087-1.563 10.837-1.555zm-4.143 1.676c-3.591.823-27.045 3.486-24.87 8.963.23.544.281.557.958.926 3.622 1.94 10.553 3.521 14.933 4.157a46.442 46.442 0 0016.579-.241c4.072-.774 19.936-1.987 24.17-5.4.954-.776 1.022-1.421.556-2.184a5.478 5.478 0 00-2.161-1.866c-6.87-3.669-26.589-5.208-30.165-4.355z" fill="#212121"/><path fill-rule="evenodd" clip-rule="evenodd" d="M222.19 230.676c-9.015-3.19-18.436-5.319-27.4-8.78-5.535-2.135-11.142-3.931-16.248-7.029-2.945-1.786-5.22-2.944-7.027-6.04a16.034 16.034 0 01-2.369-5.519c-.647-4.672 1.66-7.192 5.6-9.142a20.01 20.01 0 0116.666-.32 37.154 37.154 0 018.531 5.8 66.427 66.427 0 0115.048 17.171c3.935 6.783 2.933 4.842 7.199 13.859z" fill="#fff"/><path fill-rule="evenodd" clip-rule="evenodd" d="M188.966 192.161a21.18 21.18 0 015.553 2.479 67.335 67.335 0 018.986 7.188c7.137 6.656 10.842 12.214 15.178 20.574.834 1.618.965 1.963 3.684 7.914.124.273.129.266.132.379a.308.308 0 01-.138.24.308.308 0 01-.275.034c.126-.356.15-.425 0 0-7.266-2.443-13.2-3.825-20.679-6.14-2.709-.843-4.139-1.29-12.576-4.432a63.754 63.754 0 01-10.431-4.75c-3.812-2.277-5.67-3.223-7.825-6.913a15.32 15.32 0 01-2.189-5.273 8.805 8.805 0 01.77-5.476c2.268-4.237 10.826-8.293 19.81-5.824zm-5.653.8c-4.994.039-9.371 2.043-11.52 4.1a6.167 6.167 0 00-1.772 2.971 8.557 8.557 0 00.012 3.821 21.141 21.141 0 002.838 5.659c.413.563.88 1.084 1.395 1.556a45.635 45.635 0 007.042 4.509 83.875 83.875 0 009.048 3.914c5.632 2.144 5.469 2.149 8.439 3.214 7.38 2.625 15.465 4.765 22.775 7.41a112.16 112.16 0 00-7.58-13.949 55.3 55.3 0 00-5.079-6.831 81.975 81.975 0 00-14.517-12.986 19.31 19.31 0 00-11.081-3.39v.002z" fill="#212121"/><path fill-rule="evenodd" clip-rule="evenodd" d="M223.2 230.945c8.786-3.773 18.049-6.513 26.769-10.553 5.383-2.493 10.861-4.651 15.753-8.076 2.822-1.975 5.017-3.279 6.618-6.487a16.023 16.023 0 002-5.662c.34-4.7-2.127-7.068-6.186-8.757a20.008 20.008 0 00-16.651.771 37.136 37.136 0 00-8.134 6.344 66.439 66.439 0 00-13.893 18.117c-3.476 7.027-2.607 5.026-6.276 14.303z" fill="#fff"/><path fill-rule="evenodd" clip-rule="evenodd" d="M260.834 189.181c4.142.034 9.323 1.511 12.077 4.308 2.581 2.662 2.778 6.472 1.381 9.972-1.615 4-3 5.674-5.194 7.374-.943.73-3.238 2.3-3.771 2.65a51.926 51.926 0 01-4.986 2.876c-3.6 1.836-12.485 5.669-12.586 5.711-8.346 3.5-15.95 5.678-24.429 9.162-.149-.348-.18-.42 0 0a.305.305 0 01-.252-.004.307.307 0 01-.166-.19c-.037-.168-.086.04.924-2.616 1.484-3.908 1.475-3.894 1.722-4.513a100.174 100.174 0 016.273-12.558 71.073 71.073 0 0110.787-13.1c5.478-5.32 10.198-9.089 18.22-9.072zm-8.165 3.28c-4.044 1.879-8.074 5.751-11.44 9.2a61.892 61.892 0 00-11.8 16.22 99.9 99.9 0 00-5.643 12.468c12.118-5.3 13.237-4.517 32.453-13.571a56.319 56.319 0 009.584-5.434c3.6-2.506 4.619-3.3 6.4-7.008 1.047-2.213 1.734-4.107 1.213-6.687a6.267 6.267 0 00-2.582-3.884c-4.2-3.102-11.63-4.282-18.185-1.304z" fill="#212121"/><path fill-rule="evenodd" clip-rule="evenodd" d="M184.956 204.8c13.08 1.015 34.553 18.008 36.479 25.107L184.956 204.8z" fill="#fff"/><path fill-rule="evenodd" clip-rule="evenodd" d="M185.058 204.492c8.789.312 19.708 7.242 26.553 12.884 3.248 2.7 9.084 8.274 10.1 12.362.03.114.049.039-.195.472-.493-.282-.321-.1-.528-.617-2.741-6.687-22.869-22.056-34.837-24.289-1.517-.281-1.091-.034-1.511-.527.387-.328.309-.29.418-.285z" fill="#212121"/><path fill-rule="evenodd" clip-rule="evenodd" d="M258.665 202.692c-12.987 1.868-33.3 20.229-34.76 27.438l34.76-27.438z" fill="#fff"/><path fill-rule="evenodd" clip-rule="evenodd" d="M258.976 202.646c-.511.685.134.082-2.557.934-11.533 3.636-28.253 18.3-31.684 25.224-.829 1.724-.19 1.167-.893 1.632l-.24-.368c1.2-7.589 20.654-25.792 34.547-27.632.59-.075.393-.113.827.21z" fill="#212121"/><path fill-rule="evenodd" clip-rule="evenodd" d="M222.313 180.046c1.166 5.46.5 11.655.3 17.2-.3 8.23-.774 31.326-.285 33.843" fill="#fff"/><path fill-rule="evenodd" clip-rule="evenodd" d="M222.747 179.332c.339.443.512.315 1.155 3.466.588 3.212.867 6.472.835 9.737-.164 28.684-1.378 32.1-1.573 37.778.047.43-.016.866-.184 1.265l-.494.347h-.008l-.6-.143c-.455-.631-.381-.5-.418-.653-.116-.512-.188-1-.264-1.518-1.218-8.632-1.16-15.414-.96-24.014.372-15.227 1.552-17.463 1.374-23.334-.087-2.634-.262-1.55.02-2.7l.5-.365h.007l.61.134z" fill="#212121"/><path fill-rule="evenodd" clip-rule="evenodd" d="M51.4 244.242c-.105 4.734 1.559 20.167 1.694 28.6.08 5.057 18.042 4.521 18.689.645.273-1.635 1.245-29.624.255-30.3-1.354-.913-20.638 1.055-20.638 1.055z" fill="#fff"/><path fill-rule="evenodd" clip-rule="evenodd" d="M51.368 243.934c4.307-.527 13.359-1.5 18.1-1.6 2.885-.048 3.186.192 3.395 1.226.819 4.338-.025 29.178-.38 30.349-.7 2.2-4.708 2.946-6.994 3.209-3.327.356-8.146.225-11.05-1.35a3.47 3.47 0 01-2.067-2.864c-.2-9.311-1.7-28.663-1.282-28.663 0-.076.029-.15.08-.207a.312.312 0 01.198-.1zm.347.593c.06 5.1 1.958 20.146 2.1 28.329.144 3.532 12.747 3.613 16.413 1.372a1.77 1.77 0 00.768-.789c.242-.756 1.222-29.6.479-29.742-2.86-.497-16.894.603-19.76.83zm19.993-.767l-.011-.006.01.006zm-.017-.008h.014l-.015-.006v.006zm0 0h-.007.007z" fill="#212121"/><path fill-rule="evenodd" clip-rule="evenodd" d="M72.653 250.737c-1.948 5.369-12.988 5.528-18.408 3.552a7.791 7.791 0 01-2.36-1.3c-.143-.132-.1-.044-.139-.548.638-.046.266-.085.856.215 3.231 1.586 16.8 2.387 19.488-2.176l.413-.154.15.411zm-.199 7.34c-2.577 4.058-16.016 3.99-20.024 1.066-.2-.152-.148-.05-.241-.565.766-.138.088-.1 1.349.294 2.33.694 8.561 1.178 13.8.425 1.437-.206 3.622-.547 4.626-1.6l.438-.058.052.438zm-.077 6.29l-.14.419a20.354 20.354 0 01-14.994 2.414c-1.378-.308-3.553-.727-4.437-1.943l.025-.443c.732.041.224-.032.868.322a5.92 5.92 0 001.944.523c1.864.269 3.742.426 5.625.471a33.482 33.482 0 0010.69-1.9l.42.137zm-.112 5.7c-.1 1.081-1.511 1.887-2.5 2.322-3.282 1.437-8.62 1.6-12 .925-1.682-.353-4.033-1.167-4.821-2.7l.1-.433.434.1c1.526 1.907 7.739 1.948 10.174 1.812 1.637-.1 7.3-.556 7.98-2.047.056-.13-.04-.042.4-.343l.233.364z" fill="#212121"/><path fill-rule="evenodd" clip-rule="evenodd" d="M185.5 74.542c-.031 1.95.688 4.054 1 5.977.081.49.593 1.432.357 1.919-.4.817-1.365 1.072-2.164 1.316a3.978 3.978 0 01-1.516.144" fill="#fff"/><path fill-rule="evenodd" clip-rule="evenodd" d="M185.509 73.76l.546.235.224.551c0 2.393.621 3.959.841 5.867.05.5.529 1.361.282 2.115-.417 1.291-2.9 1.875-4.251 1.68l-.282-.338c.56-.46.108-.181 1.044-.321a7.331 7.331 0 001.648-.569c.787-.4.859-.869.814-.768V82.2v.012-.013.012-.022l-.006.022v-.031.02c.031-.342-.331-.855-.542-1.838a30.575 30.575 0 01-1.11-5.63c0-.266-.039-.118.232-.747l.55-.224.01-.001z" fill="#212121"/><path fill-rule="evenodd" clip-rule="evenodd" d="M178.823 71.9a11.415 11.415 0 00-4.7 1.221l4.7-1.221z" fill="#fff"/><path fill-rule="evenodd" clip-rule="evenodd" d="M179.354 71.327l.249.539v.008l-.209.556c-.677.314-.414.241-.937.25-1.087.047-2.167.19-3.229.426-1.272.313-.708.355-1.385.167.151-.487.018-.371.573-.728a9.424 9.424 0 013.922-1.379c.562-.066.362-.084 1.016.161z" fill="#212121"/><path fill-rule="evenodd" clip-rule="evenodd" d="M189.03 71.536a2.633 2.633 0 011.817-.082c1.066.209 2.068.3 3.115.58" fill="#fff"/><path fill-rule="evenodd" clip-rule="evenodd" d="M191.924 71.046c.719.185 1.426.415 2.116.688l.236.382-.392.218c-.744-.087-1.294-.087-2.146-.129-.966-.051-1.976-.255-2.237-.054l-.007.007-.013.01-.58.129-.5-.314v-.007l-.129-.58.315-.5c.926-.62 2.252-.152 3.337.15z" fill="#212121"/><path fill-rule="evenodd" clip-rule="evenodd" d="M177.136 75.467a6.238 6.238 0 00-.048 1.87l.048-1.87z" fill="#fff"/><path d="M177.087 78.118a.784.784 0 01-.771-.655 7.012 7.012 0 01.05-2.13.78.78 0 01.9-.611.786.786 0 01.64.879 5.535 5.535 0 00-.047 1.61.775.775 0 01-.177.632.774.774 0 01-.595.275z" fill="#212121"/><path fill-rule="evenodd" clip-rule="evenodd" d="M190.62 75.041a6.48 6.48 0 00.063 1.916l-.063-1.916z" fill="#fff"/><path d="M190.682 77.738a.78.78 0 01-.77-.652 7.425 7.425 0 01-.06-2.187.788.788 0 01.319-.522.777.777 0 01.597-.132.786.786 0 01.626.626c.02.104.018.21-.005.312a5.846 5.846 0 00.064 1.644.78.78 0 01-.771.911z" fill="#212121"/><path fill-rule="evenodd" clip-rule="evenodd" d="M182.2 90.66a4.977 4.977 0 005.22-2.212" fill="#fff"/><path fill-rule="evenodd" clip-rule="evenodd" d="M187.593 88.184l.084.435a5.137 5.137 0 01-5.368 2.835c-.3-.026-.13.037-.737-.328l-.147-.576v-.007l.307-.509c.949-.244.213-.125 1.332-.044a4.763 4.763 0 003.439-1.057c.904-.758.333-.588 1.09-.749zM135.793 92l-.041.44c-20.739 17.791-32.926 44.494-25.069 70.658 1.859 6.158 10.67 14.69 15.51 18.806 4.76-3.861 3.652-2.662 12.356-8.625l-.529-1.265a47.992 47.992 0 00-2.223-4.968c-2.046-3.785-4.152-6.088-4.815-7.353a38.216 38.216 0 01-1.621-3.783.712.712 0 01-.042-.317c.075-.418.107-.328 1.412-1.479a17.585 17.585 0 003.239-3.705c2.743-3.779 8.629-14.621 10.684-18.692 2.51-4.993 5.27-11.184 6.311-16.649.614-3.261.082-2.488.709-3.034.347.4.318.176.236 1.085-.688 7.431-5.085 16.748-8.5 23.373-1.445 2.783-5.569 10.449-7.244 13.066a23.906 23.906 0 01-5.31 6.309c1.823 4.583 1.619 3.287 4.383 7.4a34.425 34.425 0 013.206 5.869c1.914 4.577 1.844 4.208 1.759 4.633-.139.357.132.145-4.255 3.12-2.638 1.781-3.513 2.274-4.747 3.136-4.382 3.078-4.372 3.725-5.165 3.646-.261-.073-.186.02-2.16-1.73-4.751-4.214-12.5-11.882-14.535-17.927a57.057 57.057 0 01-2.1-9.625c-3.083-23.955 9.173-46.827 28.111-62.422l.44.033z" fill="#212121"/><path fill-rule="evenodd" clip-rule="evenodd" d="M137.892 174.65c.255.359.516.715.761 1.082.469.7 1.605 1.642 1.484 2.585-.024.191-.822.574-.959.661-.891.568-1.677 1.291-2.5 1.943-1.172.922-2.4 1.773-3.588 2.669-.386.29-1.189.911-1.723.855-.252-.026-.857-1.262-.988-1.448a84.052 84.052 0 01-1.506-2.213c3.035-2.318 2.266-1.511 9.019-6.134z" fill="#fff"/><path fill-rule="evenodd" clip-rule="evenodd" d="M138.251 174.6c1.908 2.36 1.061 1.211 1.79 2.092a2.243 2.243 0 01.625 1.835 1.698 1.698 0 01-.753.73 37.798 37.798 0 00-3.347 2.68c-.726.568-3.289 2.479-3.389 2.551a4.554 4.554 0 01-1.159.639c-1.027.336-1.4-.143-1.942-1.079-.579-1.009-.531-.81-1.846-2.84a.766.766 0 01.082-.943 53.436 53.436 0 016.036-3.862c3.671-2.2 3.513-2.176 3.762-1.969l.034.04-.058.042.062-.044.103.128zm-8.346 6.357a16.708 16.708 0 011.452 2.195c.082.144.173.3.276.461.5-.206 4.569-3.238 4.669-3.314a19.158 19.158 0 012.79-1.966c.177-.086.278-.135.413-.21.1-.057.087-.04.081-.088a4.278 4.278 0 00-.879-1.531 14.14 14.14 0 01-.9-1.393c-5.477 4.267-3.886 2.814-7.902 5.842v.004zm9.672-2.7c0-.02.006-.031.009-.051-.004.012-.005.02-.009.045v.006z" fill="#212121"/><path fill-rule="evenodd" clip-rule="evenodd" d="M128.608 186.675c2.6-3.332 6.128-5.779 9.634-8.06.593-.385 2.48-2.2 3.319-2 1.653.386 4.483 5.15 5.208 6.527a10.54 10.54 0 001.645 2.727c.532.491 2.721.36 3.378.513a11.157 11.157 0 015.635 3.793c.073.116-.412.282-.465.295-.515.076-1.04.07-1.553-.018a14.008 14.008 0 00-3.139.262c-.95.149-1.212.04-1.1 1.142.207 2.1.83 4.17 1.178 6.249.539 3.22.865 6.471 1.38 9.7.234 1.466.842 4.881-.592 5.976-1.6 1.22-3.365-1.713-3.769-2.736-1.684-4.269-2.507-9.026-3.6-13.485.015.107.037.213.065.318.257.942.464 1.898.62 2.862.379 1.757 2.12 5.607.375 7.051-2.6 2.156-4.582-2.874-5-4.561a12.59 12.59 0 00-.6-2.182c-.01 0 .025.512.029.553.074.663.281 1.34.29 2.007.015 1.128-1.1 1.743-2.064 1.836-.964.093-1.567-.836-1.875-1.633a23.132 23.132 0 01-1.389-6.324c-.052-.637.318-1.685-.113-2.236-1.705-2.189-7.497-8.576-7.497-8.576z" fill="#fff"/><path fill-rule="evenodd" clip-rule="evenodd" d="M129.751 188.449c-1.527-1.746-1.4-1.576-1.441-1.692a.315.315 0 01.054-.274c.152.119.295.231 0 0 3.108-4.089 7.3-6.59 9.69-8.32 1.057-.8 2.558-2.357 3.722-2.04.505.175.963.461 1.343.836a29.198 29.198 0 014.471 6.414c.294.653.661 1.27 1.094 1.84.152.17.158.219.668.3 1.817.263 2.474-.278 5.3 1.341.717.411 1.394.888 2.023 1.424a5.495 5.495 0 011.473 1.776c.064.5-.215.794-.682 1a4.547 4.547 0 01-2.234.115 22.16 22.16 0 00-3.34.347c.239 1.839.58 3.664 1.022 5.465.423 2.111.812 5.265 1.225 8.29.386 1.963.618 3.952.694 5.951-.107 3.265-2.007 4.111-3.545 3.36-2.159-1.121-3.113-4.357-3.741-6.461a2.609 2.609 0 01-.284.262c-2.4 1.9-4.465-.541-5.577-3.391l-.042.049a3.199 3.199 0 01-2.509.989c-1.207-.155-1.8-1.267-2.195-2.405a21.801 21.801 0 01-1.2-6.58c.11-.475.123-.968.039-1.449v.007c-.228-.49-5.703-6.781-6.028-7.154zm16.53 8.524c.195 0 .434 1.235.568 1.791 1.631 7.08-.179-.586 1.141 4.663a40.93 40.93 0 001.693 6.241c.275.955.726 1.85 1.329 2.639.611.769 1.334 1.41 1.871.606.808-1.255.161-4.43-.062-5.906-.9-6.111-.625-6-1.936-12.255a26.158 26.158 0 01-.458-2.822 2.225 2.225 0 01.1-1.138c.278-.641.814-.706 1.559-.8a17.295 17.295 0 013.171-.281c1 .052 1.008.15.885.025a11.718 11.718 0 00-4.12-2.581 7.79 7.79 0 00-2.144-.249c-3.043-.259-2.121-1.389-5.229-6.149-.611-.93-2.124-3.3-3.181-3.619l-.033-.009c-.618.017-2.188 1.346-2.694 1.729-1.161.86-6.239 3.609-9.713 7.807 1.756 1.888 5.106 5.535 6.85 7.577.654.77.944.976.917 1.959a7.349 7.349 0 00.105 2.713c.246 1.688.698 3.34 1.345 4.919.214.445.565.982 1.061 1.015.501-.016.98-.215 1.345-.559.6-.625 0-1.505-.08-3.183a.671.671 0 01.293-.61.7.7 0 01.275-.105.67.67 0 01.55.162.677.677 0 01.175.236c.155.361.274.738.353 1.123.12.595.272 1.182.457 1.76.41 1.2 1.6 3.881 2.862 3.916.363-.034.698-.205.94-.477.749-.864.18-2.3-.083-3.42-1.336-5.715-.783-3.515-1.278-5.553-.2-.787-.082-.667-.082-.82a.766.766 0 011.255-.344l-.007-.001zm2.573-11.585h.007-.007zm.007 0l-.011-.006.011.006zm0 0l-.007-.006.007.006zm0 0l-.009-.006.009.006zm-7.406-8.255h-.011.011zm0 0h-.013.013z" fill="#212121"/><path fill-rule="evenodd" clip-rule="evenodd" d="M249.63 146.774c-8.777-14.959-27.776-14.6-31.727-14.055-4.676.644-9.7 1.526-13.781 4.029a29.204 29.204 0 00-9.481 8.957 34.384 34.384 0 00-5.464 12.8c-3.044 17.851 12.456 31.241 28.417 34.7 3.418.741 6.586.212 9.99-.187 7.049-.826 14.8-3.354 19.387-9.023 8.244-10.195 11.052-22.916 2.659-37.221z" fill="#fff"/><path fill-rule="evenodd" clip-rule="evenodd" d="M227.583 132.458c9.591 1.531 17.616 6 22.444 14.375 7.819 13.2 6.57 26.347-2.661 37.707-4.2 5.169-10.933 7.775-17.494 8.9-9.024 1.49-11.437.855-14.91-.1a43.556 43.556 0 01-11.4-5.043c-14.5-9.172-20.364-24.609-10.935-40.773a30.143 30.143 0 0110.944-11.262 24.601 24.601 0 016.827-2.814 40.036 40.036 0 0117.185-.99zm-14.881 1.8a25.52 25.52 0 00-11.859 5.669 32.716 32.716 0 00-9.03 12.5c-6.941 16.236 2.957 31.456 19.411 38.022a34.683 34.683 0 008.565 2.3c3.015.253 9.054-.608 11.159-1.016 10.611-2.1 15.314-6.643 19.311-13.643 5.78-10.212 5.05-20.734-.9-31.164-4.341-7.215-11.289-11.256-19.568-12.975a37.815 37.815 0 00-17.091.309l.002-.002zm37.324 12.573l-.029-.048.029.048z" fill="#212121"/><path fill-rule="evenodd" clip-rule="evenodd" d="M246.7 150.047c-7.6-12.251-24.057-11.957-27.479-11.511-4.05.528-8.4 1.25-11.936 3.3a24.76 24.76 0 00-8.212 7.336 27.378 27.378 0 00-4.732 10.481c-2.636 14.619 10.789 25.586 24.613 28.418 2.96.607 5.7.174 8.652-.153 6.105-.676 12.819-2.747 16.791-7.39 7.141-8.347 9.573-18.765 2.303-30.481z" fill="#fff"/><path fill-rule="evenodd" clip-rule="evenodd" d="M228.7 138.489c7.545 1.361 14.24 4.88 18.337 11.6a38.693 38.693 0 011.918 3.494 23.305 23.305 0 011.59 17.084 28.442 28.442 0 01-7.448 11.953c-5.14 4.477-12.328 5.792-19.1 6.317a19.073 19.073 0 01-7.312-.735c-14.252-3.787-26.15-15.458-22.751-29.739a29.708 29.708 0 017.38-12.907 27.031 27.031 0 017.173-5 29.784 29.784 0 017.565-2.106 34.046 34.046 0 0112.648.039zm-17.71 2.328c-6.085 2.106-11.668 7.206-14.775 14.783-5.184 12.724 2.992 24.308 16.128 29.774a35.1 35.1 0 008.052 2.27c3.012.31 8.642-.494 10.565-.871 8.659-1.719 12.575-5.2 15.925-10.469 5.486-8.671 4.788-17.5-.407-26.118-7.023-11.03-23.113-13.548-35.488-9.369zm36.046 9.273l-.028-.043.028.043z" fill="#212121"/><path fill-rule="evenodd" clip-rule="evenodd" d="M231.636 156.109c-.4-7.677-14.931-9.642-15.633-.563-.307 3.967 3.155 6.19 6.559 7.176 4.89 1.417 11.331 3.773 9.984 8.656-2.746 9.951-19.836 6.336-18.483-.856" fill="#fff"/><path fill-rule="evenodd" clip-rule="evenodd" d="M222.853 148.613c4.534.045 9.18 2.949 9.254 7.47l-.445.5c-.749-.67-.349-.148-.66-1.358-1.324-4.737-8.769-6.31-12.238-3.267a5.431 5.431 0 00-1.46 5.421 5.496 5.496 0 002.312 2.783c1.8 1.185 3.237 1.364 5.815 2.24 4.239 1.447 8.907 3.862 8.407 8.329a8.83 8.83 0 01-1.526 3.784c-5.333 7.52-20.314 3.091-18.707-4.074l.542-.376c.432.629.378.49.354.7-.608 6.1 13.682 8.727 16.671 1.139a3.43 3.43 0 00-.215-3.611c-2.09-2.848-8.047-4.122-10.086-4.914-6.023-2.37-5.9-6.529-5.964-6.645-.383-4.343 2.604-8.121 7.946-8.121z" fill="#4965EE"/><path fill-rule="evenodd" clip-rule="evenodd" d="M224.221 144.568c-.007 5.813-1.332 29.989-1.592 37.262l1.592-37.262z" fill="#fff"/><path fill-rule="evenodd" clip-rule="evenodd" d="M224.692 144.57c.58 7.587.085 17.292-.362 24.925-.191 2.9-.305 4.53-1.236 12.352l-.482.453-.448-.487c-.234-5.2-.2-9.269-.106-12.428.657-17.179 1.232-19.257 1.692-24.818l.473-.47.469.473z" fill="#4965EE"/><path fill-rule="evenodd" clip-rule="evenodd" d="M62.363 250.318s-8.377-.171-10.47-3.564c-5.041-8.174 14.858-13.121 19.98-4.834a4.092 4.092 0 01-.375 4.517c-2.013 2.798-5.98 3.414-9.135 3.881z" fill="#fff"/><path fill-rule="evenodd" clip-rule="evenodd" d="M62.33 250.632a25.074 25.074 0 01-7.156-1c-2.233-.736-3.8-1.773-4.529-3.937-2.52-7.451 12.99-11.914 19.943-6.327 4.69 3.768 2.352 8.759-3.313 10.41a32.87 32.87 0 01-4.945.854zm.283-.676c3.137-.584 7-1.419 8.565-4.209a3.738 3.738 0 00.485-2.348 5.43 5.43 0 00-2.3-3.056c-6.222-4.377-20.714-.59-16.936 6.022 1.125 1.933 4.54 2.818 6.731 3.229 1.137.233 2.294.355 3.455.362z" fill="#212121"/><path fill-rule="evenodd" clip-rule="evenodd" d="M106.83 287.992s-8.376-.17-10.469-3.564c-5.042-8.173 14.857-13.121 19.979-4.834.389.706.561 1.512.494 2.315a4.094 4.094 0 01-.868 2.203c-2.014 2.798-5.981 3.414-9.136 3.88z" fill="#fff"/><path fill-rule="evenodd" clip-rule="evenodd" d="M106.8 288.306a25.073 25.073 0 01-7.156-.994c-2.233-.737-3.8-1.773-4.528-3.937-2.52-7.451 12.99-11.914 19.943-6.328 4.689 3.768 2.351 8.76-3.314 10.41a32.746 32.746 0 01-4.945.849zm.284-.675c3.137-.584 7-1.42 8.565-4.21a3.734 3.734 0 00.484-2.348 5.429 5.429 0 00-2.3-3.055c-6.222-4.378-20.714-.59-16.936 6.022 1.125 1.933 4.54 2.817 6.73 3.228 1.136.234 2.293.356 3.454.363h.003z" fill="#4965EE"/><path fill-rule="evenodd" clip-rule="evenodd" d="M31.777 284.9s-8.376-.171-10.468-3.564c-5.042-8.174 14.857-13.122 19.979-4.834a4.093 4.093 0 01-.375 4.517c-2.013 2.8-5.98 3.416-9.136 3.881z" fill="#fff"/><path fill-rule="evenodd" clip-rule="evenodd" d="M31.745 285.216a25.074 25.074 0 01-7.156-1c-2.233-.736-3.8-1.773-4.529-3.937-2.52-7.446 12.99-11.909 19.94-6.323 4.69 3.768 2.352 8.76-3.313 10.41a32.827 32.827 0 01-4.942.85zm.283-.676c3.137-.584 7-1.42 8.565-4.21a3.739 3.739 0 00.485-2.347 5.43 5.43 0 00-2.3-3.056c-6.222-4.377-20.714-.59-16.936 6.022 1.125 1.933 4.54 2.817 6.731 3.229 1.137.233 2.294.355 3.455.362z" fill="#212121"/><path fill-rule="evenodd" clip-rule="evenodd" d="M178.329 290.89s-8.376-.171-10.469-3.564c-5.042-8.174 14.857-13.121 19.979-4.834a4.093 4.093 0 01-.374 4.517c-2.013 2.798-5.981 3.414-9.136 3.881z" fill="#fff"/><path fill-rule="evenodd" clip-rule="evenodd" d="M178.3 291.2a25.1 25.1 0 01-7.155-1c-2.234-.736-3.8-1.773-4.529-3.937-2.52-7.451 12.99-11.914 19.943-6.327 4.689 3.768 2.351 8.759-3.314 10.409a32.738 32.738 0 01-4.945.855zm.284-.676c3.137-.584 7-1.42 8.565-4.209a3.748 3.748 0 00.485-2.348 5.435 5.435 0 00-2.3-3.056c-6.222-4.377-20.714-.59-16.936 6.022 1.125 1.933 4.54 2.817 6.731 3.229 1.135.235 2.291.357 3.451.366l.004-.004z" fill="#212121"/><path fill-rule="evenodd" clip-rule="evenodd" d="M176.413 96.948c4.132 2.106 9.406 2 13.757.668-1.133 2.664-2.347 5.294-3.71 7.864-.8 1.507-2.192 6.359-4.04 6.854-.025.007-.784-2.515-.836-2.665-1.456-4.228-1.43-3.137-5.171-12.721z" fill="#fff"/><path fill-rule="evenodd" clip-rule="evenodd" d="M176.553 96.671c4.06 1.852 8.925 1.592 13.222.309a.781.781 0 01.891.108c.339.378.248.637.068 1.069-2.349 5.632-3.311 6.948-4.02 8.657a24.899 24.899 0 01-2.333 4.855c-.513.7-1.442 1.635-2.258 1.372-.1-.1-.276-.077-.43-.459-.019-.052-.78-2.6-1.158-3.7-1.225-3.524-1.638-3.883-3.345-8.74-1.194-3.394-1.177-3.218-.987-3.422a.298.298 0 01.35-.049zm.583 1.159c3.29 7.567 3.22 6.763 4.462 9.807 1.451 3.612 1.069 3.716 1.369 3.343a16.482 16.482 0 001.853-3.636c1.291-3.19 1.715-3.377 4.081-8.663-2.88.65-5.867.659-8.751.028-3.166-.766-3.259-1.441-3.014-.879z" fill="#212121"/><path fill-rule="evenodd" clip-rule="evenodd" d="M190.17 97.616a8.53 8.53 0 003.342-1.755c3.145-2.955 5.319-10.371 5.139-13.38 2.528.377 5.036.88 7.514 1.508-.773 7.274-2.536 15.366-7.526 20.676-1.231 1.31-2.924 4.076-4.883 4.314-.615.075-1.549-2.49-1.868-2.951a25.736 25.736 0 00-3.563-4.284 118.61 118.61 0 001.845-4.128z" fill="#fff"/><path fill-rule="evenodd" clip-rule="evenodd" d="M198.766 81.777c3.065.471 4.252.707 5.935 1.08 2.578.587 2.37.254 1.987 3.235-.654 5.118-1.887 10.446-4.455 14.944a22.46 22.46 0 01-3.331 4.443c-1.336 1.539-2.839 3.717-4.834 4.111a1.1 1.1 0 01-1.22-.456 12.724 12.724 0 01-1.29-2.5 6.065 6.065 0 00-.715-1.136c-2.334-3.353-2.895-3.246-2.949-3.738.009-.182-.041-.015.666-1.461 1.479-3.032 1.276-2.88 1.518-2.978a9.915 9.915 0 002.322-1.088c2.417-1.633 3.94-5.621 4.721-8.439 1.429-5.21.419-5.26 1.1-5.874a.723.723 0 01.545-.143zm-4.866 26.605l-.013-.011.018.013-.015-.011.014.008-.018-.011h.011l-.016-.008.019.02zm2.835-16.282c-1.967 3.878-3.743 5-6.23 5.751-.221.064.123-.317-1.659 3.784a25.17 25.17 0 013.3 3.79c.615.839 1.215 2.43 1.673 2.886 1.392-.335 2.787-2.37 3.767-3.562a28.292 28.292 0 002.112-2.574c3.407-4.805 4.866-11.312 5.575-17.11 0-.025.058-.475.06-.5-1.666-.475-5.225-1.1-5.993-1.237a26.056 26.056 0 01-2.605 8.772z" fill="#212121"/><path fill-rule="evenodd" clip-rule="evenodd" d="M168.717 80.414c.473-.028.561 3.245.636 3.9a22.55 22.55 0 001.543 6.969 12.104 12.104 0 005.517 5.669c.638 1.634 1.268 3.272 1.937 4.9-.7 1.194-5.08 8.586-6.787 9.2-.627.225-2.418-2.019-2.783-2.4-4.8-5.073-7.614-13-7.9-19.621a63.69 63.69 0 01-.09-7.791c2.466-.394 5.398-.676 7.927-.826z" fill="#fff"/><path fill-rule="evenodd" clip-rule="evenodd" d="M171.777 91.72a11.55 11.55 0 004.344 4.28c1.221.687.48-.32 2.786 5.257.318.765.472.44-1.805 4.075-.956 1.516-3.3 5.177-4.777 6.172a1.338 1.338 0 01-1.636.086 6.302 6.302 0 01-1.17-.979 80.322 80.322 0 01-2.485-2.781 32.777 32.777 0 01-6.739-17.442c-.084-1.168-.36-8.89.1-9.469.143-.18.067-.213 3.02-.486 3.884-.347 5.191-.282 5.293-.336 1.432-.036.384 6.972 3.069 11.622zm-10.5-10.07a68.125 68.125 0 00.668 10.708 35.821 35.821 0 003.18 9.65 25.179 25.179 0 004.275 6.148 14.614 14.614 0 002.047 2.077c1.6-1.083 5.1-6.815 6.086-8.453-1.972-4.948-1.479-4.226-1.991-4.52-8.077-4.783-6.055-14.177-6.926-16.526-2.638.248-4.699.466-7.344.916h.005zm7.426-.923h.029-.029z" fill="#212121"/><path fill-rule="evenodd" clip-rule="evenodd" d="M241.944 244.853l1.077.51.406 1.12c-.313 3.022-.288 9.231-1.521 16.335-.4 2.256-.953 4.532-1.1 5.033l-.279.4-.446.1h-.008l-.373-.262c-.381-1.631.424 1.322.509-13.006.005-.952.058-8.32.1-8.743l.51-1.077 1.12-.406.005-.004z" fill="#fff"/></svg>