<svg width="21" height="21" fill="none" xmlns="http://www.w3.org/2000/svg"><path d="M20.46 3.152L17.848.54A1.835 1.835 0 0016.543 0h-.001c-.494 0-.957.192-1.305.54L1.921 13.854c-.109.112-.154.27-.186.37l-1.711 5.99a.616.616 0 00.76.761l5.988-1.71c.017-.005.282-.096.373-.188L20.461 5.763A1.83 1.83 0 0021 4.457c0-.493-.192-.957-.54-1.305zM1.512 19.488l1.15-4.023 2.873 2.874-4.023 1.149zm5.198-1.715L3.227 14.29 13.931 3.587l3.482 3.482L6.71 17.773zm12.88-12.88l-1.306 1.306L14.8 2.716l1.307-1.306a.61.61 0 01.434-.179c.165 0 .32.064.436.18l2.611 2.611c.24.24.24.63 0 .87z" fill="#fff"/></svg>