<svg width="52" height="52" fill="none" xmlns="http://www.w3.org/2000/svg"><path d="M7.8 10.4c-2.86 0-5.2 2.34-5.2 5.2 0 2.86 2.34 5.2 5.2 5.2 2.86 0 5.2-2.314 5.2-5.2s-2.314-5.2-5.2-5.2zM26 5.2a5.2 5.2 0 105.2 5.2c0-2.886-2.314-5.2-5.2-5.2zM44.2 0C41.34 0 39 2.34 39 5.2c0 2.86 2.34 5.2 5.2 5.2 2.86 0 5.2-2.314 5.2-5.2S47.086 0 44.2 0zM3.9 23.4A3.895 3.895 0 000 27.3V39h2.6v13H13V39h2.6V27.3c0-2.158-1.742-3.9-3.9-3.9H3.9zm18.2-5.2a3.895 3.895 0 00-3.9 3.9v11.7h2.6v13h10.4v-13h2.6V22.1c0-2.158-1.742-3.9-3.9-3.9h-7.8zM40.3 13a3.895 3.895 0 00-3.9 3.9v11.7H39v13h10.4v-13H52V16.9c0-2.158-1.742-3.9-3.9-3.9h-7.8z" fill="#4965EE"/></svg>