<svg width="358" height="358" fill="none" xmlns="http://www.w3.org/2000/svg"><path fill-rule="evenodd" clip-rule="evenodd" d="M79.067 59.846c-5.148 4.79-16.293 259.481.649 268.022 36.288 18.289 139.242-35.036 140.74-43.503 1.596-9.007 15.739-224.593.675-252.782-.589-1.1-3.51-3.253-4.177-3.754-13.065-9.755-122.066 17.296-137.887 32.017z" fill="#212121"/><path fill-rule="evenodd" clip-rule="evenodd" d="M217.373 27.257c4.219 3.148 4.432 3.65 5.489 6.468 12.028 33.025 2.246 215.832-1.324 249.299a5.293 5.293 0 01-.51 2.348c-5.754 10.611-98.909 57.638-137.639 44.942a28.367 28.367 0 01-4.393-1.871c-17.322-11.494-5.426-261.571-.302-268.722l-.016-.006C93.444 45.32 203.65 17.012 217.373 27.257zm-12.179-.817c-22.077.096-61.397 9.494-83.653 16.11-9.705 2.89-34.742 10.74-42.228 17.558a14.527 14.527 0 00-1.075 4.563c-3.288 22.196-5.517 87.949-6.126 112.522-.311 12.963-3.529 143.108 7.894 149.854.309.185 1.587.76 2.34 1.055 25.684 10.248 78.478-10.821 103.353-22.84 6.987-3.356 28.498-14.268 33.364-20.199a1.8 1.8 0 00.547-1.145c1.812-12.868 14.848-215.61 1.807-249.898a15.477 15.477 0 00-1.032-2.26 24.62 24.62 0 00-3.93-3.41c-2.514-1.774-8.193-1.91-11.261-1.91zM78.678 59.715l.016.006a.897.897 0 01.066-.08l-.082.074z" fill="#212121"/><path fill-rule="evenodd" clip-rule="evenodd" d="M90.76 63.065c-4.838 4.774-13.53 255.597.611 267.111 14.519 11.821 130.831-34.917 132.239-43.355 1.559-9.327 13.517-242.348-3.294-255.666-12.271-9.72-114.69 17.24-129.556 31.91z" fill="#fff"/><path fill-rule="evenodd" clip-rule="evenodd" d="M220.021 30.12a6.13 6.13 0 012.402 2.567c14.023 24.82 4.697 216.842 2.807 245.474-.622 9.4-.64 9.189-1.46 10.229-6.142 7.463-56.147 28.434-91.277 38.395-9.114 2.561-30.388 8.309-39.38 5.286a6.089 6.089 0 01-4.165-4.162c-9.258-22.881-5.307-156.464-4.433-181.285 3.158-87.511 6.214-83.58 5.848-83.676C104.19 48.583 204.918 21.467 220.02 30.12zm-10.75-.352c-20.924.095-58.208 9.61-79.217 16.254-9.003 2.864-32.23 10.636-39.036 17.294-4.646 4.982-12.42 248.213.471 265.732 2.997 3.9 17.046 1.486 21.874.577 23.696-4.585 56.984-16.838 79.043-26.373 6.488-2.818 24.019-10.61 29.289-15.313 1.111-1.032 1.025-1.179 1.118-2.014 1.994-18.974 12.684-236.217-2.45-253.747-2.044-2.283-7.944-2.41-11.092-2.41zM90.366 62.948h.017l.059-.077-.076.077z" fill="#212121"/><path fill-rule="evenodd" clip-rule="evenodd" d="M175.411 54.787c14.576-3.019 26.573-4.012 29.888-1.137 12.736 11.044 3.675 204.314 2.496 212.055-1.067 6.999-89.19 45.763-100.19 35.959-10.713-9.547-4.127-217.584-.463-221.543 4.284-4.628 20.021-12.704 34.23-16.071 2.387-.567 1.017 5.91 2.995 6.722 6.214 2.545 30.16-7.28 31.146-9.028.448-.802.265-3.701-.102-6.957z" fill="#fff"/><path fill-rule="evenodd" clip-rule="evenodd" d="M141.737 63.495c2.553.187 1.235 6.185 2.88 6.843 5.391 2.04 23.651-4.881 29.045-7.781 1.775-.962 1.399-1.008 1.518-1.008.463-.924.06-4.832-.033-5.82-.085-.846-.222-1.167.191-1.294.083.398.034.165 0 0 6.79-1.424 21.631-4.277 28.273-2.18a4.743 4.743 0 012.836 2.048c11.624 18.153 3.472 207.648 2.148 211.837-1.516 4.663-26.235 15.854-30.718 17.87-13.06 5.827-54.644 23.15-68.139 19.679-2.803-.764-3.609-2.009-4.438-4.524-8.388-25.699-2.88-200.587.804-217.916.291-1.378.383-1.5 1.84-2.754 6.369-5.348 19.046-10.73 27.219-13.287a58.745 58.745 0 016.574-1.713zm42.244-9.894a214.993 214.993 0 00-8.179 1.477c.23 1.781.341 3.575.333 5.37-.073 1.494-.296 1.707-1.393 2.387-5.213 3.156-23.308 9.983-29.668 8.646a2.173 2.173 0 01-1.79-1.126c-.845-1.595-.652-5.086-1.399-5.75-.185-.161-.173-.13-1.882.31a106.608 106.608 0 00-18.03 6.652c-4.11 1.947-11.23 5.658-14.347 8.95-3.262 6.524-9.59 208.106.453 220.321 1.063 1.203 3.748 1.432 5.266 1.481 18.02.343 61.871-18.296 79.888-27.672 2.252-1.18 12.76-6.727 13.697-9.069.913-4.535 10.849-203.751-2.387-211.92-4.072-2.45-15.895-.78-20.558-.057h-.004z" fill="#212121"/><path fill-rule="evenodd" clip-rule="evenodd" d="M253.761 91.133c-.358-.431-.477-1.714-.727-2.207a51.2 51.2 0 01-2.014-4.396c-.5-1.259-2.018-3.81-1.041-5.483a2.195 2.195 0 012.635-.617 4.872 4.872 0 011.738 1.538c.083.11.216.637.291.686.143.093-.109-.404.048-2.717.136-2.042-.062-4.46.557-6.43.152-.484.771-1.551 1.471-1.46.622.08 1.175.87 1.432 1.385a15.948 15.948 0 01.99 6.962c0 .084.044.39-.012.463a15.344 15.344 0 011.154-6.23c.343-.91.518-1.552 1.512-1.774 2.195-.477 2.342 2.722 2.06 4.127-.423 2.099-.612 4.096-.587 3.88a6.102 6.102 0 012.745-4.05c.597-.34 1.764-.695 2.172.106.743 1.465-.053 3.769-.585 5.144a21.08 21.08 0 01-5.137 8.663 8.913 8.913 0 01-2.625 2.459c-.458.198-6.077-.05-6.077-.05z" fill="#fff"/><path fill-rule="evenodd" clip-rule="evenodd" d="M262.369 69.905c2.109.167 2.666 2.609 2.45 4.687 2.118-1.747 4.557-1.374 4.498 1.81a12.921 12.921 0 01-1.132 4.309 16.93 16.93 0 01-2.932 5.578 49.642 49.642 0 01-3.722 4.31c-.454.47-1.002.84-1.609 1.082a60.025 60.025 0 01-6.236-.197.37.37 0 01-.207-.127c.332-.264.422-.334 0 0a7.985 7.985 0 01-.743-2.083c-.074-.205-1.138-2.047-2.204-4.55-.448-1.034-.727-1.432-1.113-2.47-.571-1.612-.632-3.58.89-4.38a3.251 3.251 0 013.024.119c.621.385.537.487.545.266.127-3.017-.129-6.264 1.033-7.967 1.218-1.827 3.314-1.484 4.416 1.695.185.546 0 .44.477-.597a2.58 2.58 0 012.565-1.485zm-6.757 4.917c-.239 5.728-.195 4.168-.198 4.61 0 1.229.119 1.305-.129 1.68a.773.773 0 01-.826.282.931.931 0 01-.632-.693c-.105-.317-.114-.336-.12-.34-.708-.917-1.391-1.617-2.519-1.391a1.005 1.005 0 00-.849.908c-.293 1.322.583 2.994 1.074 4.219 1.331 3.478 1.909 4.389 2.066 4.84.185.556.249 1.21.449 1.757 0 .011.028.07.034.08.939.017 4.699.07 5.633-.057a3.48 3.48 0 001.074-.807c.426-.436 2.075-2.473 2.29-2.744a21.764 21.764 0 003.364-5.748c.54-1.662 1.826-4.708 1.089-6.116h-.012c-1.148-.191-3.044 1.977-3.255 3.556a1.035 1.035 0 01-.186.55.881.881 0 01-1.102.266.901.901 0 01-.42-.433c-.13-.38-.103-.61.271-3.152a9.35 9.35 0 00.318-2.76 2.347 2.347 0 00-.567-1.551.67.67 0 00-.489-.036.652.652 0 00-.536.402 16.84 16.84 0 00-.698 1.91 11.35 11.35 0 00-.706 4.07c-.017.653.088 1.177-.469 1.512a.91.91 0 01-1.176-.219.908.908 0 01-.179-.392c-.119-.716.377-3.905-.632-6.683-.374-.965-.763-1.347-.948-1.422-.833.567-.963 2.858-1.014 3.902zm4.038 15.888h.015-.015zm0 0h.022-.018.015-.019zm-4.378-10.457v-.01l.009.023-.009-.02v.007zm12.154-4.954h-.008.008zm0 0h-.011.011zm0 0h-.008.008zm0 0h-.008.008zm0 0h-.01.01zm0 0l-.01-.007.01.007zm0 0l-.011-.008.011.008zm0 0l-.012-.01.012.01zm0 0v-.01.01zm0 0l-.011-.01.011.01zm0 0l-.012-.013.012.013zm0 0l-.011-.01.011.01zm0 0l-.011-.013.011.013zm0 0l-.011-.013.011.013z" fill="#212121"/><path fill-rule="evenodd" clip-rule="evenodd" d="M203.084 150.925c2.745-.41 5.256-2.611 7.829-3.58a55.233 55.233 0 0027.005-21.541c4.28-6.626 7.1-14.043 10.144-21.258a60.877 60.877 0 003.567-10.069c.278-1.22.477-4.26 1.34-5.162.704-.734 3.137-.179 4.07-.172.881.007 3.28-.422 3.945.18 1.124 1.014.582 3.587.562 4.862-.07 4.951-.451 9.931-.801 14.868-.688 9.65-1.234 20.202-4.164 29.475-3.482 11.024-11.754 21.015-20.47 28.163-4.631 3.798-9.719 6.493-14.823 9.586-.735.445-4.462 3.103-5.251 2.784-1.565-.631-2.797-6.078-3.415-7.541-2.909-6.879-9.538-20.595-9.538-20.595z" fill="#fff"/><path fill-rule="evenodd" clip-rule="evenodd" d="M203.029 150.564c2.579-.417 4.846-2.429 7.603-3.588 14.074-5.51 23.822-14.907 30.31-28.102 2.456-4.994 7.886-18.176 8.869-21.142 1.509-4.608 1.094-5.585 1.79-7.68.825-2.472 2.421-2.058 5.204-1.804.801.06 2.067-.223 3.363-.104a2.244 2.244 0 012.128 1.622c.324 1.359.375 2.769.149 4.147-.044.75.011 1.568-.177 5.426-.152 3.146-1.09 17.281-1.637 22.571-.727 6.989-1.896 14.172-4.593 20.662a63.27 63.27 0 01-14.721 20.601c-7.286 6.921-11.6 8.899-19.677 13.689-1.386.871-4.006 2.709-5.308 2.864-2.096.157-3.323-5.251-4.067-7.504-1.028-3.056-9.517-21.132-9.54-21.252a.337.337 0 01.024-.18.335.335 0 01.112-.143l.051-.034a.387.387 0 01.119-.039c.043.281.081.526-.002-.01zm50.56-60.639c-.672.806-.706 3.252-1.405 5.902-1.479 5.383-8.107 20.534-10.711 25.392a58.154 58.154 0 01-5.551 8.616c-10.877 13.854-24.324 17.542-26.611 18.724a23.291 23.291 0 01-5.69 2.638c11.527 23.437 9.407 20.266 11.091 24.64a6.99 6.99 0 001.47 2.577c.28.198 2.712-1.379 2.966-1.544 8.427-5.538 17.279-9.104 27.624-22.241 11.76-15.091 11.793-27.42 13.401-50.281.206-3.027.371-5.848.452-8.799a43.1 43.1 0 00.135-4.63 1.766 1.766 0 00-.329-.903c-.302-.33-2.912.06-3.763-.016a9.743 9.743 0 00-3.079-.075z" fill="#212121"/><path fill-rule="evenodd" clip-rule="evenodd" d="M140.701 184.336c.036-8.777 21.957-31.944 50.491-35.539 9.772-1.232 34.811-1.922 44.796 18.388 1.812 3.686 3.754 7.798 3.549 12.031-.256 5.225-3.018 9.351-5.539 13.723-6.771 11.739-14.313 20.571-24.344 30.04-8.185 7.729-21.511 11.814-32.569 9.302a89.74 89.74 0 01-23.966-9.835c-7.294-4.388-17.556-14.576-19.3-23.517-1.435-7.36 6.867-10.705 6.882-14.593z" fill="#fff"/><path fill-rule="evenodd" clip-rule="evenodd" d="M223.86 153.086a31.812 31.812 0 0113.438 14.761 35.879 35.879 0 012.599 6.646c1.826 7.24-1.292 12.467-5.137 18.931a117.226 117.226 0 01-10.825 15.727c-3.723 4.55-12.123 13.66-16.826 17.104-7.956 5.885-19.521 9.069-29.666 6.948A81.16 81.16 0 01162.287 228c-8.853-3.972-15.871-8.376-22.456-16.535a33.44 33.44 0 01-5.927-10.263c-1.053-3.266-1.097-5.996.938-9.094 2.023-3.151 5.446-5.435 5.499-7.771 0-3.626 3.302-8.368 5.57-11.188a72.124 72.124 0 0119.56-16.229c22.042-12.606 45.259-11.303 58.389-3.834zm-33.891-3.342c-15.057 2.164-29.54 10.072-39.597 19.923-3.332 3.278-9.225 10.012-9.308 14.678 0 4.254-8.433 7.273-6.654 15.003 1.941 7.766 9.798 16.02 16.257 20.655 6.858 4.938 21.202 10.927 29.423 11.955a37.183 37.183 0 0019.743-3.446c6.655-3.158 9.889-6.612 15.213-12.095 9.296-9.656 13.865-16.498 19.835-26.772 3.521-6.156 5.005-10.421 2.571-16.997a50.159 50.159 0 00-4.105-8.337c-8.95-13.73-27.363-16.867-43.375-14.568l-.003.001z" fill="#212121"/><path fill-rule="evenodd" clip-rule="evenodd" d="M225.898 92.319s-12.577 5.773-16.765 18.542c-1.563 4.766-6.683 9.507-11.633 8.377-2.477-.566-3.397-1.834-6.577-1.692-4.546.206-8.634 11.685-.676 12.6 1.209.02 2.417-.089 3.603-.324a13.347 13.347 0 003.477 10.338c.764.792 6.834 3.587 7.348 4.518.899 1.632-2.745 3.964-3.164 5.26-.742 2.275 2.337 6.366 3.736 7.703 2.369 2.26 5.702 2.864 8.043.046a6.509 6.509 0 001.356-5.995c-.427-1.162-2.558-3.813-.902-5.123.649-.514 2.267.064 3.011.015a23.662 23.662 0 005.74-1.367c7.489-2.499 13.416-10.006 15.857-17.265 1.892-5.634 3.439-12.881 3.102-18.793-.082-1.432.392-4.451-.485-5.626-1.028-1.379-3.709-1.638-5.139-2.527a35.881 35.881 0 01-9.932-8.687z" fill="#fff"/><path fill-rule="evenodd" clip-rule="evenodd" d="M225.745 91.992c.376-.136.379.071 1.087.954a38.258 38.258 0 009.318 7.665c1.224.691 3.409.992 4.706 2.017 1.528 1.208 1.237 3.357 1.194 5.766a42.9 42.9 0 01-.386 8.837 64.115 64.115 0 01-2.884 11.841 31.672 31.672 0 01-6.362 10.445 24.218 24.218 0 01-13.968 7.738 6.37 6.37 0 01-2.625.135c-1.174-.182-1.366-.164-1.537-.119-.342.273-.297.707-.188 1.13.531 1.909 1.76 2.483 1.718 5.096a7.538 7.538 0 01-4.376 6.633c-4.27 1.557-8.102-2.35-10.123-6.444a5.357 5.357 0 01-.554-4.308c.663-1.291 3.097-3.15 3.157-4.129.022-.337-2.082-1.465-2.48-1.686-4.535-2.513-4.336-2.273-5.383-3.505a13.63 13.63 0 01-3.109-9.264c-.683.145-1.379.225-2.078.239-4.338-.069-6.823-3.308-5.708-8.01.638-2.57 2.421-5.477 4.915-6.16a6.908 6.908 0 012.194-.093c2.355.239 3.314 1.193 5.239 1.684 4.499 1.074 8.929-2.833 10.751-7.063a38.36 38.36 0 011.721-4.208 35.188 35.188 0 0114.637-14.636c.264-.144.852-.447 1.124-.566.066.15.133.291 0 .01zm-31.504 37.053c.666.407.445.789.436 2.101a11.87 11.87 0 002.864 7.935c.58.661.515.632 3.661 2.325a29.144 29.144 0 013.769 2.277 1.913 1.913 0 01.738 1.511c.046 1.95-2.662 3.787-3.302 4.921-.405.746.308 2.36.695 3.113 3.74 6.913 8.503 6.703 10.415 2.354 1.622-3.876-1.061-4.535-1.289-7.518a2.512 2.512 0 01.992-2.228 2.298 2.298 0 011.486-.377c1.687.081 1.808.829 7.591-1.111 7.416-2.539 13.059-9.823 15.578-17.439a52.16 52.16 0 002.952-17.873c-.033-1.379.358-4.228-.317-5.173-.766-1.074-3.019-1.446-4.555-2.212a37.392 37.392 0 01-10.176-8.87 33.542 33.542 0 00-15.607 16.975 17.358 17.358 0 01-2.212 4.851c-1.974 2.829-4.91 5.183-8.315 5.507-2.517.203-3.93-.73-5.708-1.365a6.224 6.224 0 00-3.763-.222c-3.232 1.397-5.786 9.166-.817 10.573 2.345.652 3.939-.459 4.888-.055h-.004z" fill="#212121"/><path fill-rule="evenodd" clip-rule="evenodd" d="M197.647 140.336a16.202 16.202 0 01-4.451 1.056c-.632.16-1.281.24-1.933.239-1.949-.111-3.634-1.044-5.49-1.505-8.013-1.99-16.48-5.31-20.616-13.174a32.75 32.75 0 01-2.351-7.084 19.675 19.675 0 01-.811-7.838c.993-6.205 6.631-11.298 7.35-17.378 2.99-25.316 29.594-29.497 48.967-25.53 8.24 1.687 28.036 15.469 24.112 29.247-.186.65-.437 5.251-1.312 5.187-2.284-.161-13.632-6.97-15.067-11.21 0 0-12.577 5.771-16.765 18.539-1.564 4.766-6.683 9.507-11.633 8.377-2.477-.566-3.397-1.835-6.578-1.692-4.545.206-8.635 11.685-.675 12.6a17.06 17.06 0 003.601-.324 13.35 13.35 0 003.479 10.337c.053.056.111.107.173.153z" fill="#212121"/><path fill-rule="evenodd" clip-rule="evenodd" d="M194.46 132.686a12.465 12.465 0 001.059 3.988 11.36 11.36 0 002.429 3.468.365.365 0 01.048.288.368.368 0 01-.067.134.364.364 0 01-.116.094l-.022-.04.024.045a11.667 11.667 0 01-3.661.98c-2.074.314-2.654.805-5.64-.159-1.074-.349-1.38-.489-2.349-.777-.917-.259-2.338-.518-5.445-1.509-8.757-2.891-15.187-7.319-17.781-16.206-.995-3.45-2.139-7.347-1.698-10.875.914-6.588 6.543-11.308 7.327-17.855 2.409-19.052 18.174-27.414 37.301-27.328 4.495.034 11.682.64 15.85 2.33a40.816 40.816 0 017.557 4.163c8.486 5.907 16.67 15.185 13.998 25.208-.239 1.129-.336 4.148-1.16 5.283-.49.625-1.018.597-1.736.403-3.608-1.04-12.649-6.897-14.75-10.8a35.374 35.374 0 00-12.82 11.694c-2.765 4.383-2.472 6.086-4.28 8.916a13.551 13.551 0 01-6.464 5.44c-4.785 1.671-6.701-1.123-10.005-1.382a3.372 3.372 0 00-2.731.724c-3.417 2.764-4.892 10.513 1.58 10.826 1.412.024 2.844-.477 3.287-.287.57.558.008.543.265 3.234zm-2.562-62.245c-12.07 3.354-19.822 11.133-21.627 23.453a18.241 18.241 0 01-2.61 7.677c-1.819 3.283-4.094 6.592-4.825 9.969a16.944 16.944 0 00.516 7.698c.923 3.736 1.47 6.284 3.481 9.3 5.838 8.517 16.147 10.015 21.292 11.89a7.648 7.648 0 004.517.668 26.336 26.336 0 004.364-.868 18.968 18.968 0 01-.551-.629 13.282 13.282 0 01-2.917-9.247 8.948 8.948 0 01-4.138.14c-6.612-1.636-4.087-11.027.209-13.142a6.3 6.3 0 013.653-.238c2.229.459 3.648 1.712 5.945 1.67 4.136-.071 8.031-4.098 9.361-8.123 2.607-8.187 9.448-15.112 16.533-18.788.58-.302 1.193-.68 1.693.076a6.157 6.157 0 001.194 1.942 38.67 38.67 0 0012.704 8.679c.15.047.119.052.145-.016.385-1.185.564-3.673.716-4.35.279-.977.44-1.984.478-2.999.206-5.675-3.468-11.098-7.483-15.088-5.399-5.401-12.266-9.135-16.144-10.04a58.125 58.125 0 00-26.506.367z" fill="#212121"/><path fill-rule="evenodd" clip-rule="evenodd" d="M229.277 170.577a42.415 42.415 0 015.539-3.789c.7-.41 1.867-.654 2.33-1.379a9.673 9.673 0 00.811-2.892c.763-3.301 1.214-6.809 4.936-7.967 3.819-1.194 8.226-1.79 12.02-.204 2.117.88 3.856 4.26 1.899 6.169.851-.22 1.438 1.085 1.837 1.701a3.483 3.483 0 01-.869 4.712c2.26 1.264 1.552 5.728-.538 7.048a13.378 13.378 0 01-7.184 1.41c-.983-.19-1.982-.29-2.983-.298-.716.119-1.32.993-1.869 1.406-1.385 1.04-5.412 3.968-5.807 4.051-.555.116-10.122-9.968-10.122-9.968z" fill="#fff"/><path fill-rule="evenodd" clip-rule="evenodd" d="M249.981 152.532c2.156.022 5.182.495 6.755 1.984a5.448 5.448 0 011.781 4.543c-.275 1.688-.632.423.254 1.653a11.69 11.69 0 011.044 1.821 4.468 4.468 0 01-.627 4.307c-.064.08-.066.042.015.142a5.31 5.31 0 01.664 4.472 5.214 5.214 0 01-3.666 4.006 16.427 16.427 0 01-6.732.726 6.834 6.834 0 00-2.406-.233c-.44.328-.855.687-1.244 1.074-.408.331-4.836 3.461-5.946 4.047a.901.901 0 01-1.157-.139c-1.716-1.331-8.126-8.373-9.588-9.985-.152-.152-.23-.239-.201-.45a.349.349 0 01.119-.198 38.585 38.585 0 014.082-3.047 16.33 16.33 0 012.961-1.661 1.66 1.66 0 00.875-1.277 38.787 38.787 0 011.756-7.041c1.405-2.883 3.401-3.46 6.481-4.189a21.548 21.548 0 014.78-.555zm-10.374 27.389l-.017-.008.019.012-.015-.011.018.01-.015-.008.01.005zm8.01-5.694c1.347.22 2.711.32 4.076.298a10.676 10.676 0 005.235-1.415 4.332 4.332 0 00.943-4.886c-.408-.612-.64-.382-.928-.955a.897.897 0 01.329-1.081 2.558 2.558 0 00.857-3.006 7.191 7.191 0 00-1.152-1.781 1.132 1.132 0 01-.26.013.898.898 0 01-.8-.822c0-.863.74-.749.847-1.954a3.764 3.764 0 00-1.107-2.695c-1.162-1.193-3.667-1.612-5.334-1.679a20.897 20.897 0 00-6.128.761c-2.069.546-3.397 1.045-4.445 3.525-.81 1.917-1.4 5.579-1.79 6.553a2.555 2.555 0 01-1.432 1.515 19.62 19.62 0 00-4.654 2.555c-.659.435-1.334.903-2.044 1.448 1.607 1.608 7.727 7.707 9.511 9.115.075.059.046.059.128 0 1.392-.922 4.99-3.666 5.276-3.894.792-.63 1.208-1.644 2.872-1.615z" fill="#212121"/><path fill-rule="evenodd" clip-rule="evenodd" d="M131.838 186.193c-11.248 2.823-7.207 20.434-3.043 27.262l3.043-27.262z" fill="#fff"/><path fill-rule="evenodd" clip-rule="evenodd" d="M132.193 186.104l-.264.443a8.404 8.404 0 00-4.999 4.137 13.787 13.787 0 00-1.456 5.628 39.699 39.699 0 002.925 15.434c.792 1.91.771 1.24.585 2.02-.552-.138-.468-.083-.55-.202-6.078-8.628-7.87-25.628 3.315-27.724l.444.264z" fill="#212121"/><path fill-rule="evenodd" clip-rule="evenodd" d="M134.118 221.428a28.857 28.857 0 0015.729 14.916l-15.729-14.916z" fill="#fff"/><path fill-rule="evenodd" clip-rule="evenodd" d="M134.449 221.277a38.143 38.143 0 0015.524 14.725l.216.464-.467.21a22.977 22.977 0 01-12.455-8.53 21.495 21.495 0 01-3.482-6.563l.182-.478.482.172z" fill="#212121"/><path fill-rule="evenodd" clip-rule="evenodd" d="M166.439 241.642c9.189 4.822 25.63 4.642 33.436-3.216l-33.436 3.216z" fill="#fff"/><path fill-rule="evenodd" clip-rule="evenodd" d="M200.128 238.68c-7.45 8.563-24.295 9.054-33.857 3.284l-.154-.491.491-.155c8.917 3.917 23.293 3.699 31.504-1.964 1.952-1.363 1.096-1.181 2.014-1.186l.002.512z" fill="#212121"/><path fill-rule="evenodd" clip-rule="evenodd" d="M225.638 93.12a15.006 15.006 0 01-5.603 13.246" fill="#fff"/><path fill-rule="evenodd" clip-rule="evenodd" d="M226.001 93.091a12.512 12.512 0 01-1.383 9.253 10.788 10.788 0 01-4.362 4.303l-.508-.061c.093-.707-.068-.304.7-1.21a20.115 20.115 0 004.008-7.547 26.62 26.62 0 00.818-4.68l.335-.392.392.334z" fill="#212121"/><path fill-rule="evenodd" clip-rule="evenodd" d="M227.476 95.825c-.006-.359 1.509 1.992 1.862 2.605a8.827 8.827 0 01.662 7.287" fill="#fff"/><path fill-rule="evenodd" clip-rule="evenodd" d="M227.295 96.106l.016.013-.013-.016.017.013-.008-.007.015.01-.007-.007.017.012.023.013.031.013.041.014h-.006.033l-.328-.34V95.8c0-.03.003-.058.011-.086 0-.008.019-.059.021-.066.114-.205.339-.373.766-.038a8.697 8.697 0 013.435 6.376 6.615 6.615 0 01-.911 3.69c-.111.203 0 .119-.551.389-.374-.779-.15-.108-.15-1.541.008-.407-.006-.815-.042-1.221a10.4 10.4 0 00-1.395-5.047c-.198-.383-.827-1.849-.988-2.117l.008.008-.035-.042zm.545-.279l-.342.33h.023a.332.332 0 00.239-.12l.046-.064.026-.06.015-.049v-.039l-.007.002z" fill="#212121"/><path fill-rule="evenodd" clip-rule="evenodd" d="M216.978 115.745c0 1.303-.054 1.307-.063 2.585l.063-2.585z" fill="#fff"/><path d="M216.978 115.745c0 1.303-.054 1.307-.063 2.585" stroke="#000" stroke-width="2.126" stroke-linecap="round" stroke-linejoin="round"/><path fill-rule="evenodd" clip-rule="evenodd" d="M235.738 114.963c.018.863.013.982-.019 1.996l.019-1.996z" fill="#fff"/><path d="M235.738 114.963c.018.863.013.982-.019 1.996" stroke="#000" stroke-width="2.126" stroke-linecap="round" stroke-linejoin="round"/><path fill-rule="evenodd" clip-rule="evenodd" d="M226.312 113.689c.573 2.703 1.471 5.123 2.307 8.528-.942.63-1.97 1.12-3.053 1.454" fill="#fff"/><path fill-rule="evenodd" clip-rule="evenodd" d="M229.001 122.973a8.925 8.925 0 01-3.351 1.048l-.438-.264.268-.435c.767-.399 1.49-.875 2.159-1.422a29.361 29.361 0 01-1.683-8.135l.281-.432.433.28a41.058 41.058 0 012.64 7.737c.145.703.347 1.258-.309 1.623z" fill="#212121"/><path fill-rule="evenodd" clip-rule="evenodd" d="M232.632 127.675s-10.754 2.028-15.991 1.088c-.342 2.568-.788 5.414.769 7.722 1.706 2.528 6.13 2.995 8.661 1.732 3.962-1.979 6.946-5.757 6.561-10.542z" fill="#fff"/><path fill-rule="evenodd" clip-rule="evenodd" d="M232.914 127.768a10.43 10.43 0 01-3.097 8.492 11.561 11.561 0 01-4.976 3.074 8.977 8.977 0 01-5.665-.554c-3.461-1.671-3.837-5.071-3.341-8.876.18-1.378.154-1.368.349-1.598a.679.679 0 01.696-.162c3.938.667 11.853-.165 15.704-.738h.046c.15.011.255.056.284.362zm-15.707 1.735c-.279 2.296-.533 4.671.767 6.603 1.254 1.816 4.058 2.374 6.249 2.018a7.735 7.735 0 003.278-1.461 10.396 10.396 0 004.817-7.48c.041-.389.059-.78.054-1.172-4.3.918-10.815 1.996-15.165 1.492zm35.142 3.579a14.107 14.107 0 00-5.944-.375c-4.584 1.018-8.353 6.639-6.26 11.171 1.161 2.516 5.439 5.186 9.558 4.975.512-.027 1.569.043 1.879-.43 1.279-1.939.279-5.951.394-8.175.122-2.372.373-7.166.373-7.166z" fill="#212121"/><path fill-rule="evenodd" clip-rule="evenodd" d="M247.917 131.959c1.524.086 3.032.342 4.498.765.424.109.298.155.252 5.428 0 .281-.037 1.969-.03 2.369.086 2.406 1.115 6.288-.366 8.435-.607.804-1.734.759-2.808.788a12.14 12.14 0 01-7.602-2.576 7.301 7.301 0 01-2.889-3.905c-1.49-5.053 2.942-11.304 8.945-11.304zm-2.148 1.603c-3.348 1.354-5.998 5.315-5.191 8.873a5.14 5.14 0 001.922 2.944 10.748 10.748 0 005.121 2.436c1.081.194 2.185.215 3.273.062.985-1.623.238-5.435.416-7.66.659-7.399.716-6.802.575-6.828-2.212-.325-3.975-.65-6.113.173h-.003z" fill="#212121"/><path fill-rule="evenodd" clip-rule="evenodd" d="M245.433 147.762a16.54 16.54 0 00-.939 5.06 19.066 19.066 0 00-.154 4.484c.698 3.635 7.16 3.604 9.224 1.337 1.023-1.123.491-4.773.438-6.23-.026-.716.284-3.461-.278-3.886-.649-.492-1.832-.218-2.568-.196-1.391.041-5.723-.569-5.723-.569z" fill="#212121"/><path fill-rule="evenodd" clip-rule="evenodd" d="M245.482 147.407c1.965.199 3.94.279 5.914.238a5.683 5.683 0 012.072-.057 1.567 1.567 0 011.294 1.358c.119.683.165 1.376.136 2.068a14.25 14.25 0 00.084 2.77c.177 2.243.344 4.552-1.085 5.797-2.465 2.148-8.106 2.167-9.888-.844a6.444 6.444 0 01-.396-4.164 24.61 24.61 0 011.482-6.943c.04.005.049-.245.387-.223zm-.337 4.68c-.03.119-.146 3.668-.144 3.789a2.946 2.946 0 00.913 2.538 6.268 6.268 0 006.752-.159c1.113-.927.371-4.005.521-7.067.07-.7.063-1.407-.02-2.106a8.74 8.74 0 00-2.318-.105c-1.325-.081-3.719-.525-5.168-.801a15.248 15.248 0 00-.536 3.911zm8.091-2.957l-.013-.012.03.025-.012-.012.026.021-.048-.039.017.017z" fill="#212121"/><path fill-rule="evenodd" clip-rule="evenodd" d="M304.128 159.317c-5.203-.716-20.661-4.007-27.805-5.397-6.34-1.234-23.419-5.269-23.866-5.956-.734-1.117-.322-7.142-.171-14.099 3.411-1.733 48.605-26.834 48.873-26.774 15.589 3.463 12.975 50.03 2.969 52.226z" fill="#212121"/><path fill-rule="evenodd" clip-rule="evenodd" d="M301.264 106.219c5.561 1.271 8.502 7.105 9.955 12.601 3.06 11.273 2.011 33.087-4.667 39.544a4.351 4.351 0 01-2.474 1.313v-.011c-.039.222-29.277-5.041-43.979-8.608-7.951-1.945-8.166-2.197-8.473-2.851-.724-1.612-.405-7.453-.3-10.329.089-4.429.045-4.104.18-4.415.227-.358.196-.265 1.88-1.178 13.279-7.223 46.935-26.096 47.878-26.066zm-48.119 28.184l-.076 3.525h-.009c-.079 1.883-.395 7.788.053 9.456 5.497 2.301 45.631 10.765 51.009 11.565a5.8 5.8 0 003.092-2.663c4.074-6.324 4.799-19.582 4.09-27.738-.679-7.287-3.029-18.662-10.059-20.534-1.957.976-41.763 23.036-48.1 26.389zm68.92-32.676a42.863 42.863 0 014.981 2.387c.723-1.01 2.582-4.198 3.366-4.962a1.172 1.172 0 01.923-.358c1.842.258 3.627.83 5.276 1.692.65-.916 1.312-1.99 2.118-3.103 2.028-2.794 2.451-2.681 3.632-2.105a24.22 24.22 0 014.391 2.864c.119.12.074.02.095.587-.944.031.111.175-2.419-1.112a27.53 27.53 0 00-2.959-1.313 4.364 4.364 0 00-.45.524c-2.198 2.973-3.042 5.886-4.423 5.555a31.673 31.673 0 00-4.969-1.767c-.129-.013-.081-.041-.217.135-1.193 1.583-2.864 4.576-3.616 5.093-.903.525-1.699-.424-5.703-2.587-.621.835-2.793 4.296-3.331 5.262l-.487.169c-.19-.544-.19-.437-.141-.556.323-.751 1.14-2.431 1.562-3.284 1.432-2.864 1.697-3.202 2.371-3.121zm5.384 2.563h.016-.019.003zm-5.154-1.281h.008-.008zm0 0l.023-.021-.012.01.023-.02-.01.007.013-.015a.44.44 0 00-.039.035l.002.004zm18.986-6.744h-.014.025-.015.039c-.029 0-.016 0-.053-.007l.018.007zm6.145 31.502c.969.305 4.214 4.13 4.626 5.149l-.169.477c-.896-.322.042.152-1.728-1.624a33.015 33.015 0 00-2.798-2.462c-.239-.176-.187-.156-.309-.104-.439.22-.86.473-1.261.757-5.998 4.148-4.071 4.159-7.804.757a9.423 9.423 0 00-1.687-1.274c-.845.466-2.666 1.83-4.288 2.9-1.518.967-1.671.784-2.94-.774-1.008-1.251-1.836-2.387-2.514-3.179-.923.57-4.034 2.838-4.978 3.589-.119.092 0 .062-.588.033.027-.584-.02-.467.096-.587a55.373 55.373 0 015.108-4.435.832.832 0 01.86-.05c.835.457 3.149 3.46 3.783 4.092a50.166 50.166 0 015.066-3.39 1.19 1.19 0 01.947.07 16.615 16.615 0 014.213 3.508c1.518-.955 5.083-3.752 6.365-3.453zm-16.271 3.594l-.016-.013.016.013zm15.854-2.282h-.013l.024.011h-.014l.03.012h-.012l.018.006-.051-.024.018-.005zm-20.167-.845h.007-.007zm0 0l.029-.009h-.015l.028-.011.018-.008a.384.384 0 00-.067.025l.007.003zm-2.525 23.989a.952.952 0 01.716.448c.665.861 2.296 4.177 2.55 4.579 1.432-.543 4.134-1.79 5.32-2.111.667-.172.967-.089 1.638.492a20.02 20.02 0 012.972 4.069c1.365-.477 4.994-2.159 6.545-2.063a.923.923 0 01.744.369 21.66 21.66 0 013.033 5.667c.031.144.062.05-.25.544-.74-.477-.126-.035-1.194-1.753a30.126 30.126 0 00-2.485-3.423c-.934.243-1.843.574-2.714.988-3.431 1.475-4.189 2.086-4.93 1.021a26.067 26.067 0 00-2.84-3.993c-.188-.173-.142-.154-.261-.119-1.3.411-4.49 1.852-5.504 2.101a1.06 1.06 0 01-.547.048 1.06 1.06 0 01-.496-.234c-.623-.614-1.799-3.566-2.625-5.131-1.087.372-4.833 1.994-5.735 2.437l-.496-.138.138-.496c.691-.434 5.564-3.311 6.421-3.302zm19.463 6.701h-.012l.022.016-.013-.01.026.019-.011-.007.016.01-.043-.034.015.006zm-15.959-1.285l-.014-.016.014.016zm-3.523-4.007h.008-.008zm0 0h.031-.016.03-.012.019a.275.275 0 00-.05-.002l-.002.002z" fill="#212121"/><path fill-rule="evenodd" clip-rule="evenodd" d="M150.686 188.666c1.484 9.656-.053 25.139 30.731 36.011 35.588 12.568 62.836-41.136 62.256-43.053-.609-2.007-2.775-3.711-3.96-5.37a74.15 74.15 0 00-5.728-6.846c-.584-.642-1.582-2.104-2.364-2.414-.685-.271-1.718.491-2.302.716-2.117.827-4.283 1.432-6.392 2.287-4.105 1.671-8.354 2.73-12.542 4.122-3.185 1.059-7.178 2.451-10.621 1.6-.716-.176-4.654-10.254-6.812-12.946" fill="#fff"/><path fill-rule="evenodd" clip-rule="evenodd" d="M234.5 168.737c.716.814 2.673 2.828 4.809 5.537 1.063 1.374 1.182 1.624 1.747 2.275.905 1.057 3.699 3.789 3.487 5.397a24.504 24.504 0 01-1.955 4.684 105.67 105.67 0 01-9.963 15.604c-12.21 15.822-29.356 29.25-48.724 24.072a74.788 74.788 0 01-12.367-4.952c-5.824-2.95-11.367-6.83-15.174-12.067-4.709-6.584-5.067-12.292-5.884-19.416-.17-1.414-.239-1.02.156-1.565.487.358.401.204.477.675.875 5.413.846 12.494 6.206 19.605 5.668 7.512 15.982 12.579 24.89 15.497a31.38 31.38 0 0017.65.702c16.285-4.133 30.211-20.138 38.717-34.551a58.729 58.729 0 004.095-8.051c.055-.141.098-.285.129-.432-.597-1.714-2.35-3.018-4.016-5.329-1.276-1.749-2.496-3.189-3.913-4.803-3.296-3.717-2.807-3.393-3.536-3.875a3.968 3.968 0 00-1.263.5c-1.232.616-4.45 1.491-6.847 2.444-3.675 1.454-6.905 2.275-11.058 3.536-3.132.955-6.115 2.123-9.348 2.289a10.337 10.337 0 01-3.334-.358c-.878-.561-2.918-6.043-5.237-10.547-1.738-3.32-1.605-2.185-1.499-3.112l.506.06c2.095 2.557 5.654 11.266 6.75 12.688 1.372.266 2.782.269 4.154.009 1.875-.326 2.796-.574 14.098-4.306 3.444-1.16 3.97-1.489 5.62-2.111 1.542-.571 2.421-.845 3.805-1.342a12.777 12.777 0 002.443-1.058c2.061-.957 2.818.511 4.379 2.301zm-34.466 6.553l-.009-.007.009.007zm31.302-7.535h-.008.008zm0 0h-.008.008zm0 0h-.008.008zm-.012 0h.01-.01zM176.311 72.16c1.313-.682 16.522-10.961 24.89-9.538 1.585.27 3.231.13 4.825.375a7.677 7.677 0 003.366.168c3.017-1.074 2.089-7.447.945-9.546-3.485-6.386-9.827-8.81-16.815-9.158a21.57 21.57 0 00-8.497.81c-4.377 1.466-7.854 4.821-10.566 8.399-2.281 3.008-4.027 6.726-3.572 10.608a18.973 18.973 0 001.377 4.264c.473 1.288 2.027 4.666 4.047 3.617z" fill="#212121"/><path fill-rule="evenodd" clip-rule="evenodd" d="M191.199 43.491c8.271.055 15.585 2.173 19.702 9.308 1.59 2.816 2.214 8.473-.2 10.58-1.432 1.188-2.973.75-4.804.444-1.165-.186-2.45-.151-3.872-.282a14.5 14.5 0 00-3.611-.238c-8.308.632-19.976 8.178-22.119 9.267v-.01c-2.135.892-3.72-1.958-4.581-4.113-.955-2.305-1.58-3.47-1.479-6.106.239-5.005 3.64-9.871 7.279-13.343a18.269 18.269 0 0113.685-5.507zm-14.886 29.07l-.018.007v.01c.236-.128.17-.089.018-.017zm14.488-27.284a16.092 16.092 0 00-8.721 2.32 26.483 26.483 0 00-9.812 11.28c-1.71 4.425-.574 6.793.512 9.687.541 1.505 1.811 3.968 3.363 3.278a102.645 102.645 0 0113.108-7.385c8.752-3.833 11.467-2.564 13.792-2.478 1.013.006 2.025.066 3.031.18 1.679.24 2.799.635 3.626-.192 1.211-1.346.897-4.475.46-6.24a7.263 7.263 0 00-1.088-2.505c-3.998-6.346-10.837-7.944-18.271-7.944z" fill="#212121"/><path d="M136.927 272.24c5.738 0 10.39-4.467 10.39-9.976 0-5.51-4.652-9.977-10.39-9.977-5.739 0-10.391 4.467-10.391 9.977 0 5.509 4.652 9.976 10.391 9.976z" fill="#212121"/><path fill-rule="evenodd" clip-rule="evenodd" d="M134.042 253.623a8.918 8.918 0 00-5.912 12.009 8.91 8.91 0 003.11 3.888c6.111 4.312 14.687.484 15.156-6.734.34-6.547-6.233-11.064-12.354-9.163zm6.364-1.714a10.764 10.764 0 016.985 6.254 10.76 10.76 0 01-.573 9.358 11.501 11.501 0 01-16.002 3.858 11.511 11.511 0 01-4.094-4.445c-4.218-8.766 4.331-17.895 13.684-15.021v-.004z" fill="#212121"/><path fill-rule="evenodd" clip-rule="evenodd" d="M137.007 267.397s7.704-2.744 5.7-8.1a3.016 3.016 0 00-5.786.029 3.01 3.01 0 00-2.885-2.165 3.006 3.006 0 00-2.885 2.165c-2.002 5.355 5.564 7.942 5.856 8.071z" fill="#fff"/><path fill-rule="evenodd" clip-rule="evenodd" d="M139.998 256.226c2.816.083 4.25 3.043 3.893 5.572a6.272 6.272 0 01-1.8 3.426 13.683 13.683 0 01-4.773 3.024v-.013.013c-.413.119-.555.029-.981-.141-2.938-1.177-6.018-3.293-6.394-6.423a5.781 5.781 0 011.118-4.041 3.907 3.907 0 014.515-1.093c.511.217.97.54 1.346.949a4.257 4.257 0 013.076-1.273zm-2.133 3.075c-.132.358-.177.861-.941.93-.793-.067-.822-.606-.954-.954a2.282 2.282 0 00-2.029-1.219c-1.27.015-1.935 1.153-2.158 2.398-.469 2.898 2.573 4.892 5.23 5.966 2.625-1.096 5.595-3.241 5.057-6.098-.68-3.308-3.643-2.445-4.205-1.023zm140.688-68.04c14.32.186 25.1 12.841 21.815 26.548-4.017 15.976-24.352 21.165-36.895 10.694-15.221-13.142-5.582-37.28 15.08-37.242zm-6.245 3.589a20.054 20.054 0 00-7.234 3.938c-12.896 11.024-6.086 31.932 11.874 33.918v.007a20.54 20.54 0 0019.728-11.408c7.033-15.064-7.51-31.381-24.368-26.455z" fill="#212121"/><path fill-rule="evenodd" clip-rule="evenodd" d="M287.272 217.425l-.077.764c-3.116 3.778-8.204 4.516-12.8 3.148a12.945 12.945 0 01-4.605-2.67l-.025-.028-.119-.765c1.5-.221-.442-.178 3.994.765 2.534.701 5.195.814 7.779.329a14.364 14.364 0 005.085-1.611l.768.068zm-14.418-9.601c.771 1.589.345.527.478 3.146.027.358.083.052-.264 1.252l-.903.504h-.01l-.995-.289-.504-.904c-.066-.197-.056-2.626-.059-2.626l.346-.975.933-.452h.009l.969.344zm13.347-.265c.771 1.59.345.526.477 3.147.027.358.085.051-.264 1.252l-.903.503h-.01l-.995-.289-.503-.904c-.089-.261-.029-1.94-.059-2.625l.347-.975.932-.453h.01l.968.344zm-148.462-99.786c10.271.132 17.485 9.34 15.188 18.475-2.844 11.217-17.005 14.704-25.691 7.449-10.549-9.103-3.923-25.963 10.503-25.924zm-4.368 2.422c-1.86.56-3.584 1.5-5.063 2.76-9.001 7.696-4.296 22.316 8.311 23.716 2.829.187 5.651-.47 8.107-1.888a14.328 14.328 0 005.691-6.073c5.045-10.928-5.725-21.964-17.046-18.515z" fill="#212121"/><path fill-rule="evenodd" clip-rule="evenodd" d="M143.372 125.35c3.356.216 1.299 7.072-4.758 7.196-1.456.164-2.93.019-4.326-.425-3.805-1.402-4.717-5.012-3.138-6.018.358-.209.135-.226 6.338-.535.385-.019 5.504-.242 5.884-.218zm-11.308 2.258c.051.66.304 1.289.725 1.8a6.747 6.747 0 002.325 1.784c.896.416 1.873.63 2.862.627a5.773 5.773 0 005.25-3.938c.076-.256.088-.527.035-.789-4.983.289-8.953.394-11.197.516zm.017-.096v-.007.007zm0-.01v-.017.024l.009-.012-.008.01.01-.017-.008.013.011-.018-.008.014.008-.017-.008.016.008-.017-.014.021zm11.162-.441h-.006.006zm0 0l-.012-.011.012.011zm-.006-.007l-.011-.017.011.017-.011-.016.012.017-.012-.014.015.018-.012-.013.014.015v-.017l-.006.01zm-8.352-7.408c.842.477 1.611.767 1.264 1.686-.185.323-.35.425-1.405 1.15-.807.502-1.667.911-2.566 1.22l-.502-.092.098-.502a13.858 13.858 0 011.92-2.036c.224-.112-.103.021-1.568-1.372-.683-.639-.51-.364-.732-.998l.487-.171c1.054.21 2.068.586 3.004 1.115zm8.878-1.474l-.17.487c-.381.333-.856.802-1.313 1.184-.846.691-.992.611-.813.701.706.613 1.35 1.295 1.922 2.035l.097.503-.503.092a19.724 19.724 0 01-1.019-.4 7.762 7.762 0 01-1.544-.818c-.17-.169-1.138-.68-1.407-1.152-.348-.92.428-1.209 1.265-1.686a9.721 9.721 0 013.002-1.115l.483.169zM32.71 209.713c10.248.027 18.174 9.433 15.733 19.136-3.667 14.472-24.482 15.665-30.629 2.431-4.71-10.425 3.452-21.708 14.895-21.567zm-4.546 2.446a14.26 14.26 0 00-8.882 7.637c-4.065 9.1 2.432 18.916 12.263 19.894 8.566.46 15.752-6.07 15.664-14.2-.112-9.635-9.868-16.127-19.046-13.331z" fill="#212121"/><path fill-rule="evenodd" clip-rule="evenodd" d="M38.553 227.956a1.746 1.746 0 011.64 1.83c.102 2.706-3.176 5.829-7.187 5.592-7.16.632-9.679-6.265-6.673-6.819.914-.163 11.648-.632 12.22-.603zm-11.765 2.28c-.01.248.027.496.112.729.556 1.719 2.691 3.55 6.054 3.687 0 .148 4.198-.419 5.385-3.744.15-.37.197-.772.14-1.166v-.01l-.012-.031c-.123 0-11.555.526-11.68.535zm.018-.087l.007-.009-.007.009zm0-.012l-.006.013.012-.016v.007l.012-.017-.009.013.01-.018-.01.016.01-.017v.016l.008-.016-.027.019zm11.64-.455l-.009-.007.009.007zm0 0l-.014-.01.014.01zm0-.006l-.008-.007-.006-.008.014.017-.014-.015.016.018-.014-.015.015.016v-.008l-.01-.012.013.018-.006-.011-.008-.008.008.015zm-7.766-7.093a.902.902 0 01.398 1.018c-.13.358-.15.358-1.111 1.051-.79.58-1.66 1.042-2.582 1.374-.57.224-.358.195-.955.084.12-.608.018-.404.41-.86a12.258 12.258 0 011.698-1.742l.11-.087a16.098 16.098 0 01-2.216-1.802c-.163-.146-.086 0-.29-.597l.486-.169c1.447.319 2.821.906 4.053 1.73zm8.268-2.104l-.17.486-.011.012a17.502 17.502 0 01-2.324 1.895 13.867 13.867 0 012.052 2.112c.107.119.053.012.165.577-.578.107-.471.105-.596.057a12.541 12.541 0 01-2.552-1.245 17.989 17.989 0 01-1.284-.943.901.901 0 01-.126-1.085c.161-.231.174-.247.808-.607a10.82 10.82 0 013.388-1.389c.216-.054.08-.069.65.13z" fill="#212121"/><path d="M33.233 146.947c14.548 0 26.34-11.322 26.34-25.288 0-13.966-11.792-25.288-26.34-25.288-14.547 0-26.34 11.322-26.34 25.288 0 13.966 11.793 25.288 26.34 25.288z" fill="#212121"/><path fill-rule="evenodd" clip-rule="evenodd" d="M25.515 98.422c-19.353 5.884-24.301 30.623-7.509 42.762 16.16 11.434 39.176 1.613 40.619-18.116.85-17.647-16.528-29.68-33.11-24.646zm16.124-1.685c21.157 6.802 25.543 33.294 7.745 46.014-13.543 9.62-33.21 5.263-40.774-9.869C-1.535 112.054 19 89.729 41.639 96.737z" fill="#212121"/><path fill-rule="evenodd" clip-rule="evenodd" d="M33.434 134.673s19.53-6.968 14.452-20.535c-3.397-9.08-13.684-5.339-14.668.071-.985-5.41-11.23-9.08-14.628 0-5.076 13.567 14.107 20.138 14.844 20.464z" fill="#fff"/><path fill-rule="evenodd" clip-rule="evenodd" d="M33.479 135.577c-.277-.007-.23 0-.865-.252-6.654-2.569-14.2-7.424-15.573-14.439a13.294 13.294 0 011.747-9.143c3.645-5.832 11.217-4.712 14.43.062a8.705 8.705 0 013.439-3.043c5.67-2.857 11.622.249 12.837 7.927.803 5.574-2.064 10.047-6.464 13.587a33.954 33.954 0 01-9.551 5.301zm1.027-22.37a5.358 5.358 0 00-.44 1.321.906.906 0 01-.399.469.902.902 0 01-.606.105c-1-.265-.454-.905-1.412-2.381-2.235-3.448-8.991-5.271-11.933 1.142-4.09 9.388 4.235 16.078 13.724 19.838.119-.119 18.72-6.857 13.446-19.631-2.833-6.778-10.285-4.923-12.38-.863z" fill="#212121"/><path d="M265.486 55.094c6.968 0 12.617-5.424 12.617-12.114s-5.649-12.113-12.617-12.113c-6.969 0-12.617 5.423-12.617 12.113 0 6.69 5.648 12.114 12.617 12.114z" fill="#212121"/><path fill-rule="evenodd" clip-rule="evenodd" d="M261.927 32.301a11.022 11.022 0 00-7.965 8.727 11.03 11.03 0 004.504 10.923c7.573 5.376 18.258.447 18.711-8.323.484-7.653-7.255-13.747-15.25-11.327zm7.727-1.709a12.883 12.883 0 018.357 7.482 12.88 12.88 0 01-.68 11.195 13.776 13.776 0 01-19.161 4.62 13.772 13.772 0 01-4.901-5.323c-5.069-10.54 5.282-21.417 16.385-17.974z" fill="#212121"/><path fill-rule="evenodd" clip-rule="evenodd" d="M265.582 49.214s9.356-3.34 6.922-9.836a3.662 3.662 0 00-7.028.034 3.644 3.644 0 00-3.503-2.63 3.648 3.648 0 00-3.503 2.63c-2.43 6.5 6.759 9.646 7.112 9.802z" fill="#fff"/><path fill-rule="evenodd" clip-rule="evenodd" d="M265.636 50.12c-.229-.006-.21.006-.791-.223-2.674-1.082-5.548-2.824-6.921-5.36a6.405 6.405 0 011.439-7.865 4.653 4.653 0 016.116.808 4.995 4.995 0 013.645-1.638c2.352.03 3.813 1.635 4.45 3.898 1.059 3.967-1.527 7.014-5.08 9.083a13.92 13.92 0 01-2.858 1.297zm3.461-12.465a3.071 3.071 0 00-2.54 1.414c-.309.566-.082.75-.63 1.13a.905.905 0 01-1.138-.198c-.289-.406-.12-.358-.332-.818a2.93 2.93 0 00-3.672-1.264 4.345 4.345 0 00-1.767 4.286c.465 2.92 3.818 4.932 6.563 6.037 2.667-1.093 5.929-3.25 6.375-6.116a5.039 5.039 0 00-.716-3.278 2.436 2.436 0 00-2.143-1.194z" fill="#212121"/><path d="M256.153 279.95c6.968 0 12.617-5.423 12.617-12.114 0-6.69-5.649-12.113-12.617-12.113-6.969 0-12.618 5.423-12.618 12.113 0 6.691 5.649 12.114 12.618 12.114z" fill="#212121"/><path fill-rule="evenodd" clip-rule="evenodd" d="M252.593 257.163a11.018 11.018 0 00-5.25 3.207 11.031 11.031 0 001.789 16.443c7.553 5.361 18.258.477 18.709-8.323.486-7.658-7.253-13.753-15.248-11.327zm7.727-1.709a12.875 12.875 0 017.675 18.677 13.77 13.77 0 01-24.061-.703c-5.068-10.545 5.284-21.422 16.386-17.98v.006z" fill="#212121"/><path fill-rule="evenodd" clip-rule="evenodd" d="M256.249 274.07s9.355-3.341 6.922-9.836a3.663 3.663 0 00-7.027.034 3.653 3.653 0 00-3.503-2.628 3.647 3.647 0 00-3.504 2.628c-2.43 6.499 6.758 9.646 7.112 9.802z" fill="#fff"/><path fill-rule="evenodd" clip-rule="evenodd" d="M256.297 274.975c-.229 0-.21.007-.79-.222-2.674-1.082-5.548-2.823-6.921-5.36a6.402 6.402 0 011.432-7.864 4.65 4.65 0 016.115.807 4.998 4.998 0 013.646-1.638c2.353.03 3.819 1.635 4.451 3.897 1.059 3.968-1.528 7.015-5.081 9.084a13.76 13.76 0 01-2.852 1.296zm3.468-12.464a3.061 3.061 0 00-2.54 1.414c-.31.565-.083.75-.63 1.131a.905.905 0 01-1.139-.199c-.288-.406-.12-.358-.331-.819a2.926 2.926 0 00-3.672-1.262 4.345 4.345 0 00-1.768 4.285c.465 2.92 3.818 4.932 6.563 6.037 2.667-1.093 5.927-3.25 6.375-6.116a5.035 5.035 0 00-.723-3.278 2.442 2.442 0 00-2.135-1.193z" fill="#212121"/><path fill-rule="evenodd" clip-rule="evenodd" d="M301.515 110.006c-.439.55-1.932 6.127-1.633 15.561.402 12.621 2.809 29.92 3.658 29.953 8.765.407 8.803-45.137-2.025-45.514z" fill="#fff"/><path fill-rule="evenodd" clip-rule="evenodd" d="M301.716 109.652c3.353.169 5.447 4.423 6.508 7.606 2.654 7.967 3.076 19.045 1.909 27.321-.597 4.128-2.119 11.575-6.292 11.845a1.14 1.14 0 01-1.074-.358c-1.423-1.755-4.774-27.531-3.057-40.058.178-1.344.847-5.362 1.506-6.216.165-.175.29-.151.5-.14zm-.85 4.994a71.48 71.48 0 00-.155 13.302c.39 5.993 2.044 22.72 3.332 26.628 6.66-1.676 7.337-42.789-2.257-44.182l-.059-.007a22.892 22.892 0 00-.861 4.259z" fill="#212121"/><path fill-rule="evenodd" clip-rule="evenodd" d="M294.284 120.518l.632.821v.009l-.141 1.026c-1.05.809-.581.558-1.91.913-7.405 1.983-15.322 5.512-25.018 9.66-1.695.7-3.342 1.51-4.932 2.423-2.774 1.658-1.54 1.465-2.847 1.356l.068-.762a20.386 20.386 0 012.105-1.645c3.473-2.367 14.587-7.605 17.351-8.86a90.552 90.552 0 0113.659-5.082l1.033.141z" fill="#fff"/></svg>