<svg width="49" height="44" fill="none" xmlns="http://www.w3.org/2000/svg"><path d="M41.333 18.056a10.82 10.82 0 01-9.793-6.212H3.778V8.668H30.6c-.066-.479-.1-.962-.101-1.445.002-.483.035-.965.101-1.444H3.778a2.889 2.889 0 00-2.89 2.889v31.777a2.889 2.889 0 002.89 2.89h40.444a2.89 2.89 0 002.89-2.89V16.38a10.775 10.775 0 01-5.779 1.676zm-19.066 9.143l-14.445 6.63v-3.813l9.404-4.334-9.404-4.333v-3.77l14.445 6.63v2.99zm9.533 8.046h-9.244v-3.467H31.8v3.467z" fill="#4965EE"/><path d="M41.333 14.444a7.222 7.222 0 100-14.444 7.222 7.222 0 000 14.444z" fill="#4965EE"/></svg>