<svg width="22" height="22" fill="none" xmlns="http://www.w3.org/2000/svg"><path d="M.815 7.614a11.063 11.063 0 012.242-3.986.613.613 0 01.68-.175l2.415.888a1.227 1.227 0 001.053-.098c.158-.093.294-.221.4-.375.104-.153.176-.328.209-.513L8.274.76A.653.653 0 018.44.425a.625.625 0 01.32-.183c1.476-.323 3-.323 4.476 0 .122.027.234.09.321.183a.654.654 0 01.168.335l.46 2.595c.033.185.105.36.21.513.105.154.241.282.4.375a1.236 1.236 0 001.052.098l2.416-.887a.613.613 0 01.679.176 11.064 11.064 0 012.24 3.984.664.664 0 01-.19.692l-1.958 1.708c-.14.122-.251.273-.328.443a1.325 1.325 0 00.328 1.529l1.957 1.708a.664.664 0 01.191.692 11.063 11.063 0 01-2.24 3.986.614.614 0 01-.68.175l-2.415-.889a1.227 1.227 0 00-1.053.098 1.273 1.273 0 00-.4.376 1.313 1.313 0 00-.209.512l-.462 2.597a.654.654 0 01-.167.335.624.624 0 01-.32.182c-1.475.323-3 .323-4.475 0a.625.625 0 01-.321-.183.653.653 0 01-.168-.335l-.46-2.595a1.314 1.314 0 00-.209-.513 1.273 1.273 0 00-.4-.376 1.236 1.236 0 00-1.052-.098l-2.416.888a.613.613 0 01-.679-.176 11.062 11.062 0 01-2.24-3.984.664.664 0 01.19-.692l1.958-1.708c.14-.122.251-.273.328-.443a1.324 1.324 0 00-.328-1.529L1.008 8.306a.664.664 0 01-.191-.692H.814zm1.336-.008l1.629 1.42c.278.244.502.546.656.887a2.649 2.649 0 010 2.174c-.154.34-.378.643-.656.886l-1.63 1.421a9.76 9.76 0 001.568 2.784l2.01-.737a2.456 2.456 0 012.105.196c.317.188.59.444.8.751.21.307.353.657.418 1.026l.384 2.159a9.262 9.262 0 003.129 0l.384-2.161c.065-.37.208-.72.418-1.026.21-.307.484-.563.8-.75a2.469 2.469 0 012.105-.196l2.01.738a9.762 9.762 0 001.568-2.784l-1.629-1.42a2.579 2.579 0 01-.657-.886 2.645 2.645 0 010-2.176 2.58 2.58 0 01.657-.885l1.63-1.421a9.759 9.759 0 00-1.568-2.785l-2.01.738a2.455 2.455 0 01-2.105-.196 2.546 2.546 0 01-.8-.75 2.627 2.627 0 01-.418-1.026l-.385-2.16a9.258 9.258 0 00-3.129 0l-.383 2.16c-.065.37-.208.72-.418 1.026-.21.307-.483.563-.8.75a2.47 2.47 0 01-2.105.197l-2.01-.739A9.76 9.76 0 002.15 7.606zM7.853 11c0-.858.331-1.68.921-2.287A3.105 3.105 0 0111 7.765c.835 0 1.635.341 2.226.948A3.28 3.28 0 0114.147 11a3.28 3.28 0 01-.921 2.287c-.59.607-1.391.948-2.226.948s-1.635-.341-2.226-.948A3.28 3.28 0 017.853 11zm1.259 0c0 .515.199 1.008.553 1.372.354.364.834.569 1.335.569.5 0 .981-.205 1.335-.569s.553-.857.553-1.372c0-.515-.198-1.008-.553-1.372A1.863 1.863 0 0011 9.059c-.5 0-.981.205-1.335.569A1.969 1.969 0 009.112 11z" fill="#fff"/></svg>